<svg width="406" height="306" viewBox="0 0 406 306" fill="none" xmlns="http://www.w3.org/2000/svg">
<g clip-path="url(#clip0_20_34)">
<path opacity="0.18" d="M25.7157 260.607C-8.04086 236.158 0.335914 177.77 2.53326 158.963C3.75187 148.61 6.29465 138.257 11.5337 129.39C26.6273 103.828 58.7718 97.3707 82.53 80.6267C108.965 62.098 125.796 30.1358 154.246 15.263C169.906 7.0781 187.743 4.86157 205.217 3.88284C236.939 2.0981 271.655 5.10145 295.231 27.4971C312.282 43.6941 320.783 67.5962 335.935 85.7603C349.291 101.785 367.331 112.771 381.311 128.201C402.076 151.095 412.688 186.128 401.461 215.471C391.031 242.654 375.065 260.492 366.784 263.179C340.204 271.815 282.114 272.861 254.316 274.837C224.523 276.948 197.703 272.323 167.852 272.419C121.794 272.573 58.9541 275.116 25.7541 260.569" fill="#402B4C"/>
<path d="M283.87 173.865C283.87 173.865 288.188 184.737 265.514 191.473C242.84 198.209 230.395 224.855 230.884 247.27V261.721C230.884 261.721 301.391 287.628 361.18 263.716C361.18 263.716 366.937 203.179 326.061 188.978C326.061 188.978 317.588 186.483 320.073 176.504C320.073 176.504 339.514 165.536 336.021 136.635C332.528 107.734 321.426 98.7621 309.95 98.1096C263.605 95.4708 263.441 156.258 283.87 173.865Z" fill="#F4BE8C"/>
<path d="M366.784 263.217C366.784 263.217 367.647 220.998 360.633 206.662C354.713 194.543 339.437 191.434 326.541 187.471C325.824 187.204 325.057 187.1 324.295 187.164C323.353 187.406 322.483 187.874 321.762 188.527C314.751 193.803 306.045 196.317 297.301 195.59C288.556 194.863 280.385 190.945 274.342 184.583C258.874 189.295 246.774 189.199 238.656 203.189C230.539 217.179 226.518 244.497 228.044 260.598C228.006 260.607 297.697 288.847 366.784 263.217Z" fill="#402B4C"/>
<path d="M244.385 203.582C244.385 203.582 256.091 191.578 260.803 191.521C265.514 191.463 294.387 273.36 294.387 273.36L251.294 271.306L244.385 203.582Z" fill="url(#paint0_linear_20_34)"/>
<path d="M269.63 102.581C272.327 93.619 279.024 85.3094 288.15 83.2272C290.875 82.6035 293.686 82.5555 296.43 82.0277C298.1 81.7015 299.731 81.2121 301.382 80.7995C308.148 79.0149 315.27 79.0811 322.002 80.9914C328.761 82.951 334.554 87.3433 338.266 93.3215C341.644 99.0787 342.594 105.949 342.104 112.589C341.615 119.229 337.767 130.993 335.954 137.393C332.73 133.171 334.879 121.196 330.369 118.375C327.164 116.37 323.038 117.281 319.306 117.914C310.649 119.402 301.778 119.075 293.254 116.955C289.215 115.938 285.069 114.518 280.991 115.343C277.451 116.053 276.194 118.768 274.275 121.781C272.912 123.864 272.096 134.255 270.935 136.28C268.23 135.321 267.702 118.855 267.731 116.485C267.709 111.784 268.349 107.104 269.63 102.581Z" fill="#333333"/>
<path d="M338.468 134.63C338.897 134.221 339.405 133.904 339.961 133.698C340.517 133.492 341.109 133.401 341.701 133.43C342.153 133.528 342.578 133.726 342.943 134.01C343.309 134.294 343.606 134.657 343.812 135.071C344.22 135.902 344.443 136.813 344.465 137.739C344.685 141.44 343.476 145.084 341.087 147.919C339.773 149.455 337.815 150.798 335.848 150.328C335.454 150.258 335.092 150.067 334.812 149.781C334.597 149.512 334.44 149.202 334.351 148.869C333.586 145.966 333.533 142.921 334.198 139.993C334.418 138.717 334.543 137.47 335.618 136.645C336.51 135.954 337.546 135.321 338.468 134.63Z" fill="#F4BE8C"/>
<path d="M142.252 178.548C143.768 178.298 145.418 177.962 146.406 176.792C147.128 175.751 147.538 174.526 147.587 173.261C149.438 159.338 154.591 118.317 140.87 94.8087C138.951 91.4503 133.999 90.6731 131.332 88.0919C125.076 81.9509 117.064 74.5049 105.991 74.5816C79.4497 74.764 67.3691 87.9001 56.4975 112.119C49.8959 126.809 47.8617 171.303 53.3311 175.611C59.0883 180.15 74.249 179.785 81.388 180.496C101.674 182.496 122.135 181.841 142.252 178.548Z" fill="#333333"/>
<path d="M130.977 110.2C131.482 109.508 132.139 108.94 132.896 108.54C135.132 107.446 137.838 108.732 139.613 110.459C141.853 112.821 143.411 115.746 144.123 118.922C144.804 122.074 145.126 125.293 145.082 128.517C145.14 132.477 145.018 136.437 144.718 140.396C144.411 146.221 143.194 151.961 141.11 157.409C138.874 162.792 135.218 167.715 130.21 170.679C126.486 157.361 126.141 143.371 125.824 129.554C125.767 127.356 125.719 125.169 125.767 122.981C125.767 122.117 125.527 120.448 125.94 119.68C126.352 118.912 127.091 119.066 127.763 118.557C128.828 117.761 128.645 116.283 128.885 115.074C129.256 113.328 129.967 111.672 130.977 110.2V110.2Z" fill="url(#paint1_linear_20_34)"/>
<path d="M60.6908 138.583C59.7139 138.717 58.7831 139.082 57.9753 139.648C57.2871 140.265 56.7517 141.034 56.4113 141.893C54.8969 145.222 54.1942 148.863 54.361 152.516C54.5278 156.169 55.5593 159.73 57.3708 162.907C57.3708 162.907 61.8903 158.062 62.2837 157.563C63.8401 155.541 65.2205 153.391 66.4097 151.134C67.494 149.071 73.184 139.504 70.315 138.324C68.5015 137.585 62.8786 138.122 60.6908 138.583Z" fill="url(#paint2_linear_20_34)"/>
<path d="M67.1869 173.865C65.0855 169 65.5077 163.445 66.2274 158.196C66.8703 153.629 67.801 148.927 70.4781 145.175C72.9708 141.882 76.3984 139.418 80.3134 138.103C84.2055 136.812 88.2585 136.069 92.3556 135.896C98.2415 135.493 104.151 135.589 110.021 136.184C114.152 136.464 118.207 137.438 122.015 139.063C127.197 141.597 131.326 145.869 133.683 151.134C136.006 156.395 136.795 162.206 135.957 167.897C135.768 170.346 134.89 172.691 133.424 174.662C131.707 176.421 129.539 177.676 127.158 178.289C118.522 181.052 109.368 180.841 100.425 180.486C93.0081 180.198 85.5141 180.62 78.212 179.181C73.9325 178.346 69.1444 178.413 67.1869 173.865Z" fill="url(#paint3_linear_20_34)"/>
<path d="M158.9 263.707C99.0723 287.628 28.6038 261.711 28.6038 261.711V247.318C28.0665 224.845 40.5405 198.189 63.2336 191.473C85.9267 184.756 84.3434 176.897 84.3434 176.897C63.9244 159.299 61.3145 95.4804 107.689 98.1288C119.203 98.7812 130.286 107.724 133.76 136.664C137.233 165.604 114.569 178.241 114.569 178.241C114.263 179.661 114.372 181.14 114.883 182.501C115.393 183.862 116.283 185.047 117.448 185.917C119.326 187.365 121.481 188.414 123.78 188.997C164.609 203.169 158.9 263.707 158.9 263.707Z" fill="#F4BE8C"/>
<path d="M82.4819 140.329C91.5207 140.329 100.656 139.034 108.936 135.426C117.217 131.818 124.596 125.725 128.818 117.751C130.243 115.249 131.067 112.451 131.226 109.576C131.332 104.145 127.887 99.0691 123.31 96.1426C118.733 93.216 113.197 92.1605 107.775 91.9302C96.0977 91.4408 84.0363 94.732 75.151 102.322C71.4691 105.448 68.4637 109.293 66.3189 113.62C64.1741 117.948 62.9348 122.668 62.677 127.491C62.2452 138.026 73.8652 140.32 82.4819 140.329Z" fill="#333333"/>
<path d="M164.455 263.217C164.455 263.217 159.898 228.76 152.883 214.396C146.963 202.277 137.099 191.434 124.203 187.481C123.486 187.213 122.719 187.108 121.957 187.174C121.017 187.414 120.15 187.882 119.434 188.536C112.423 193.813 103.717 196.326 94.9723 195.599C86.228 194.872 78.0565 190.955 72.0135 184.593C56.5577 189.38 43.4864 199.839 35.4262 213.868C27.3085 227.849 24.2284 244.506 25.7157 260.607C25.7157 260.607 95.359 288.847 164.455 263.217Z" fill="#402B4C"/>
<path d="M114.713 272.333C114.713 272.333 88.1624 275.279 82.7698 272.582C82.7698 272.582 96.2033 200.377 128.175 189.985C128.175 189.985 142.031 192.288 152.883 214.396C156.04 220.815 114.713 272.333 114.713 272.333Z" fill="url(#paint4_linear_20_34)"/>
<path d="M114.79 287.465V243.748C114.79 243.748 125.258 204.407 161.634 199.897C198.01 195.388 237.371 201.394 237.371 201.394C237.371 201.394 275.752 206.374 282.709 253.708V291.082C282.709 291.082 186.045 319.024 114.79 287.465Z" fill="#402B4C"/>
<path d="M162.958 149.138C161.404 148.178 159.495 147.516 157.787 148.178C157.079 148.456 156.446 148.892 155.935 149.454C153.238 152.333 153.392 156.814 154.246 160.652C154.721 162.806 155.363 164.921 156.165 166.976C156.499 167.928 156.982 168.822 157.595 169.624C159.514 171.898 162.872 172.205 165.827 171.86C167.574 171.658 169.522 171.13 170.318 169.557C170.592 168.952 170.749 168.301 170.779 167.638C171.575 159.875 169.752 153.245 162.958 149.138Z" fill="#F4BE8C"/>
<path d="M236.133 152.285C238.311 150.769 241.142 149.598 243.588 150.654C244.546 151.138 245.36 151.864 245.951 152.759C246.541 153.654 246.888 154.688 246.956 155.759C247.067 157.9 246.693 160.038 245.863 162.015C245.02 164.553 243.701 166.908 241.976 168.952C240.226 171.002 237.75 172.295 235.068 172.56C233.734 172.664 232.397 172.385 231.216 171.756C230.035 171.128 229.058 170.175 228.399 169.01C227.748 167.454 227.446 165.773 227.516 164.087C227.397 162.792 227.544 161.486 227.948 160.249C229.003 157.611 233.897 153.84 236.133 152.285Z" fill="#F4BE8C"/>
<path d="M176.325 204.129C175.473 205.593 174.973 207.236 174.866 208.927C174.929 209.921 175.17 210.896 175.576 211.805C179.088 220.441 186.361 224.797 193.376 226.812C195.481 227.469 197.667 227.827 199.872 227.878C206.493 227.878 213.037 223.329 217.019 215.989C217.251 215.613 217.399 215.19 217.451 214.751C217.428 214.18 217.267 213.624 216.98 213.129C214.505 207.794 214.956 200.915 215.608 194.649C215.708 194.131 215.675 193.596 215.512 193.094C215.414 192.904 215.279 192.735 215.114 192.598C214.949 192.461 214.758 192.359 214.553 192.298C210.264 190.494 205.658 191.617 201.119 191.444C194.882 191.214 188.837 188.345 182.59 188.335C179.808 188.335 179.597 189.371 179.203 192.854C178.857 196.743 177.885 200.55 176.325 204.129Z" fill="#F4BE8C"/>
<path d="M176.402 186.176C176.402 186.176 180 200.281 188.722 209.522C197.444 218.762 218.094 216.996 215.656 208.744C213.603 201.826 217.451 186.176 217.451 186.176H176.402Z" fill="url(#paint5_linear_20_34)"/>
<path d="M269.573 134.102C268.613 133.142 267.491 132.183 266.138 132.096C265.609 132.098 265.087 132.217 264.611 132.446C264.134 132.675 263.715 133.008 263.384 133.421C262.723 134.258 262.284 135.248 262.108 136.299C261.654 138.847 261.855 141.469 262.693 143.918C263.653 146.912 265.37 149.944 268.287 151.086C268.789 151.328 269.345 151.437 269.902 151.401C270.458 151.366 270.996 151.188 271.463 150.884C272.091 150.255 272.481 149.428 272.567 148.543C273.708 142.891 273.891 138.305 269.573 134.102Z" fill="#F4BE8C"/>
<path d="M233.878 159.578C231.124 182.712 218.266 201.797 198.999 201.797C179.731 201.797 164.119 182.904 164.119 159.578C164.119 136.251 176.507 109.95 195.784 109.95C215.061 109.95 239.51 112.292 233.878 159.578Z" fill="#F4BE8C"/>
<path d="M158.861 151.949C157.582 142.795 156.741 133.59 156.338 124.334C156.165 120.256 156.232 115.698 158.967 112.695C159.687 112.037 160.331 111.3 160.886 110.497C161.341 109.468 161.591 108.36 161.625 107.235C162.661 98.4934 168.984 91.1914 176.238 86.2114C184.187 80.7683 193.404 77.4637 203 76.616C206.085 76.2805 209.204 76.4131 212.25 77.0094C215.312 77.7567 218.252 78.9359 220.982 80.5117C225.319 82.8626 229.493 85.7028 232.573 89.5506C235.653 93.3983 237.543 98.3975 236.891 103.282C239.005 104.186 240.904 105.527 242.464 107.217C244.023 108.907 245.208 110.908 245.939 113.088C247.353 117.611 247.804 122.38 247.263 127.088C246.304 138.295 242.044 149.8 233.101 156.613C233.245 148.777 231.507 141.022 228.034 133.996C226.706 131.602 225.499 129.143 224.417 126.627C223.398 123.934 222.903 121.071 222.958 118.193C219.216 120.189 217.019 124.276 213.488 126.637C211.229 128.005 208.727 128.921 206.118 129.333C197.725 130.991 189.063 130.688 180.806 128.45C177.543 127.567 173.389 126.646 171.335 129.333C170.059 130.993 170.28 133.296 170.107 135.388C169.823 137.667 169.272 139.905 168.466 142.057L163.381 157.409C161.653 155.941 159.187 154.204 158.861 151.949Z" fill="#333333"/>
<path d="M117.601 186.33C101.471 196.664 90.2349 179.143 89.7168 178.269C93.5049 180.389 97.7732 181.502 102.114 181.502C106.455 181.502 110.723 180.389 114.511 178.269C114.206 179.69 114.315 181.169 114.825 182.53C115.335 183.89 116.226 185.076 117.39 185.946L117.601 186.33Z" fill="url(#paint6_linear_20_34)"/>
<path d="M269.429 144.494C268.757 143.621 268.047 142.575 268.373 141.5C268.7 140.425 269.832 139.869 269.842 138.832C269.82 138.538 269.736 138.252 269.595 137.992C269.454 137.732 269.261 137.505 269.026 137.326C268.474 136.818 267.768 136.51 267.021 136.453C266.764 136.434 266.507 136.49 266.282 136.616C266.027 136.8 265.836 137.058 265.735 137.355C264.612 139.869 264.986 142.824 265.975 145.396C266.141 145.884 266.398 146.337 266.733 146.729C267.206 147.162 267.78 147.468 268.402 147.622C269.362 147.929 270.494 147.938 270.715 146.739C270.878 145.875 269.87 145.108 269.429 144.494Z" fill="url(#paint7_linear_20_34)"/>
<path d="M337.757 144.686C338.429 143.812 339.139 142.767 338.813 141.692C338.487 140.617 337.354 140.061 337.335 139.024C337.36 138.729 337.446 138.443 337.588 138.183C337.73 137.924 337.925 137.697 338.161 137.518C338.71 137.007 339.417 136.699 340.166 136.645C340.42 136.625 340.674 136.682 340.895 136.808C341.152 136.991 341.347 137.249 341.452 137.547C342.565 140.061 342.191 143.016 341.202 145.588C341.054 146.151 340.747 146.66 340.319 147.054C339.89 147.448 339.358 147.712 338.784 147.814C337.825 148.121 336.692 148.13 336.462 146.931C336.309 146.087 337.278 145.3 337.757 144.686Z" fill="url(#paint8_linear_20_34)"/>
<path d="M233.935 162.907C234.997 163.029 236.068 162.771 236.958 162.178C237.423 161.958 237.828 161.629 238.138 161.218C238.925 159.981 238.061 158.263 238.628 156.92C238.907 156.431 239.296 156.013 239.763 155.7C240.231 155.387 240.765 155.187 241.324 155.116C241.716 154.986 242.14 154.986 242.533 155.116C242.826 155.312 243.061 155.583 243.216 155.899C243.371 156.216 243.44 156.568 243.416 156.92C243.611 159.96 242.636 162.961 240.691 165.306C239.717 166.459 238.519 167.403 237.17 168.079C235.821 168.755 234.348 169.15 232.842 169.24C232.688 169.262 232.531 169.238 232.391 169.173C232.236 169.07 232.127 168.912 232.083 168.732C231.779 167.864 231.707 166.931 231.875 166.027C232.044 165.123 232.446 164.279 233.043 163.579" fill="url(#paint9_linear_20_34)"/>
<path d="M158.717 158.944C159.159 159.683 160.051 159.971 160.79 160.403C161.529 160.848 162.144 161.473 162.577 162.219C163.01 162.966 163.247 163.81 163.266 164.673C163.322 165.242 163.193 165.814 162.9 166.305C162.606 166.795 162.162 167.178 161.634 167.398C160.569 167.695 159.504 166.937 158.756 166.122C157.789 165.045 157.044 163.788 156.563 162.423C156.083 161.058 155.876 159.612 155.954 158.167C156.011 157.208 156.424 154.79 157.959 155.288C159.188 155.72 158.122 157.946 158.717 158.944Z" fill="url(#paint10_linear_20_34)"/>
<path d="M162.181 129.611C161.154 131.034 160.546 132.716 160.425 134.466C160.232 136.995 160.322 139.538 160.694 142.047L162.143 155.087C163.947 148.85 168.207 143.409 169.176 136.99C169.483 134.946 169.426 132.816 170.078 130.839C170.366 129.976 172.074 127.846 171.441 127.001C170.808 126.157 167.171 126.829 166.221 127.097C164.646 127.496 163.235 128.375 162.181 129.611Z" fill="url(#paint11_linear_20_34)"/>
<path d="M233.83 107.839C233.975 107.757 234.144 107.723 234.31 107.743C234.521 107.791 234.646 107.993 234.761 108.185C236.968 111.956 239.213 115.804 240.182 120.073C240.685 122.434 240.888 124.849 240.787 127.26C240.54 135.371 238.03 143.251 233.542 150.011C232.64 147.027 232.736 143.822 232.016 140.78C231.057 136.654 228.648 133.037 226.547 129.352C224.628 125.994 221.279 120.323 223.716 116.658C226.138 112.779 229.658 109.71 233.83 107.839V107.839Z" fill="url(#paint12_linear_20_34)"/>
<path d="M283.87 173.865C283.87 173.865 289.33 180.524 301.209 180.879C314.028 181.263 320.073 176.523 320.073 176.523C320.073 176.523 314.422 188.997 300.307 191.78C291.373 193.564 281.327 189.726 279.533 185.063C279.533 185.111 285.386 179.67 283.87 173.865Z" fill="url(#paint13_linear_20_34)"/>
<path d="M176.661 200.502C176.661 200.502 180.124 217.044 192.435 220.892C204.746 224.74 215.138 212.429 215.522 204.35C215.906 196.27 217.834 198.592 217.834 198.592L220.914 200.512V230.91L197.444 227.436L174.358 233.98C174.358 233.98 168.197 206.269 171.661 198.573" fill="#402B4C"/>
</g>
<defs>
<linearGradient id="paint0_linear_20_34" x1="206.944" y1="206.115" x2="416.565" y2="313.929" gradientUnits="userSpaceOnUse">
<stop stop-opacity="0"/>
<stop offset="0.99"/>
</linearGradient>
<linearGradient id="paint1_linear_20_34" x1="122.965" y1="147.267" x2="155.388" y2="118.989" gradientUnits="userSpaceOnUse">
<stop stop-opacity="0"/>
<stop offset="0.6" stop-opacity="0.36"/>
<stop offset="0.99"/>
</linearGradient>
<linearGradient id="paint2_linear_20_34" x1="1141.2" y1="5189.74" x2="1248.4" y2="4252.62" gradientUnits="userSpaceOnUse">
<stop stop-opacity="0"/>
<stop offset="0.99"/>
</linearGradient>
<linearGradient id="paint3_linear_20_34" x1="7594.04" y1="8182.19" x2="7559.57" y2="10621.3" gradientUnits="userSpaceOnUse">
<stop stop-opacity="0"/>
<stop offset="0.99"/>
</linearGradient>
<linearGradient id="paint4_linear_20_34" x1="5969.19" y1="22029.5" x2="15783.8" y2="26266.6" gradientUnits="userSpaceOnUse">
<stop stop-opacity="0"/>
<stop offset="0.99"/>
</linearGradient>
<linearGradient id="paint5_linear_20_34" x1="8058.23" y1="7859.7" x2="9094.78" y2="5817.58" gradientUnits="userSpaceOnUse">
<stop stop-opacity="0"/>
<stop offset="0.99"/>
</linearGradient>
<linearGradient id="paint6_linear_20_34" x1="3032.06" y1="2883.25" x2="3070.27" y2="2445.24" gradientUnits="userSpaceOnUse">
<stop stop-opacity="0"/>
<stop offset="0.99"/>
</linearGradient>
<linearGradient id="paint7_linear_20_34" x1="1829.38" y1="2199.77" x2="1932.2" y2="2202.34" gradientUnits="userSpaceOnUse">
<stop stop-opacity="0"/>
<stop offset="0.99"/>
</linearGradient>
<linearGradient id="paint8_linear_20_34" x1="8813.84" y1="2202.25" x2="8711.01" y2="2204.82" gradientUnits="userSpaceOnUse">
<stop stop-opacity="0"/>
<stop offset="0.99"/>
</linearGradient>
<linearGradient id="paint9_linear_20_34" x1="3220.81" y1="3095.19" x2="2876.45" y2="2969.63" gradientUnits="userSpaceOnUse">
<stop stop-opacity="0"/>
<stop offset="0.99"/>
</linearGradient>
<linearGradient id="paint10_linear_20_34" x1="1351.37" y1="2654.88" x2="1485.77" y2="2614.33" gradientUnits="userSpaceOnUse">
<stop stop-opacity="0"/>
<stop offset="0.99"/>
</linearGradient>
<linearGradient id="paint11_linear_20_34" x1="2158.43" y1="5646.32" x2="1749.4" y2="4946.48" gradientUnits="userSpaceOnUse">
<stop stop-opacity="0"/>
<stop offset="0.6" stop-opacity="0.36"/>
<stop offset="0.99"/>
</linearGradient>
<linearGradient id="paint12_linear_20_34" x1="4873.56" y1="6459.34" x2="3927.78" y2="6908.87" gradientUnits="userSpaceOnUse">
<stop stop-opacity="0"/>
<stop offset="0.6" stop-opacity="0.36"/>
<stop offset="0.99"/>
</linearGradient>
<linearGradient id="paint13_linear_20_34" x1="13202.2" y1="4719.1" x2="13043.1" y2="3131.84" gradientUnits="userSpaceOnUse">
<stop stop-opacity="0"/>
<stop offset="0.99"/>
</linearGradient>
<clipPath id="clip0_20_34">
<rect width="406" height="306" fill="white"/>
</clipPath>
</defs>
</svg>
