<svg width="406" height="306" viewBox="0 0 406 306" fill="none" xmlns="http://www.w3.org/2000/svg">
<g clip-path="url(#clip0_17_148)">
<path opacity="0.7" d="M186.44 0.319221C149.52 2.30645 113.709 13.6337 82.3618 33.2396C67.7271 42.5172 53.8707 53.8099 44.7826 68.5841C35.6946 83.3584 31.9337 102.073 37.7995 118.374C41.3011 128.06 47.8851 136.28 52.5838 145.438C57.2824 154.596 59.9859 165.869 55.3072 175.037C49.9402 185.651 36.9915 189.552 27.8236 197.193C13.2688 209.304 14.9248 220.237 19.8429 236.039C24.1026 249.846 30.9461 261.797 42.0492 271.234C63.7368 289.67 93.7642 295.366 121.028 299.895C160.533 306.459 201.035 308.175 240.799 302.888C260.262 300.314 278.428 294.907 297.292 290.148C315.727 285.53 334.303 279.763 350.024 268.75C368.737 255.641 381.968 236.102 387.194 213.86C392.419 191.619 389.273 168.232 378.356 148.162C362.634 119.232 332.806 100.577 314.68 73.1331C304.026 57.0121 297.611 38.1477 285.201 23.3735C273.799 9.98584 243.712 4.71858 227.401 2.18471C219.223 0.933663 210.972 0.223832 202.701 0.059848C197.284 -0.0598625 191.857 0.00996888 186.44 0.319221Z" fill="#FBE3D7"/>
<path d="M78.501 226.153C82.0723 228.727 85.6537 231.301 89.4146 233.585C96.2281 237.725 103.57 240.907 110.883 244.07C113.018 244.988 115.162 245.915 117.307 246.803C118.681 247.47 120.172 247.863 121.697 247.96C125.038 247.96 127.682 245.347 130.675 243.77C133.279 242.384 136.231 241.775 138.865 240.478C139.863 240 140.86 239.202 140.77 238.134C140.681 237.067 139.773 236.558 138.905 236.139C131.313 232.149 123.043 229.505 114.833 226.941C113.528 226.43 112.134 226.186 110.733 226.223C108.109 226.462 106.064 228.547 103.58 229.425C101.921 229.931 100.179 230.107 98.4527 229.944C91.5893 229.575 85.3145 226.223 78.501 226.153Z" fill="url(#paint0_linear_17_148)"/>
<path d="M220.438 244.918L219.869 244.998C219.45 245.327 220.617 245.417 220.438 244.918Z" fill="url(#paint1_linear_17_148)"/>
<path d="M93.5247 178.678C97.7844 180.384 102.264 182.04 105.027 183.995L170.479 229.954C175.492 233.584 180.715 236.915 186.121 239.93C190.53 242.314 193.044 246.913 198.391 248.07C201.036 248.528 203.744 248.48 206.372 247.93C210.674 247.231 214.907 246.156 219.021 244.718C219.53 244.549 220.238 244.439 220.468 244.928C258.585 239.72 295.037 225.884 332.826 218.681C333.277 218.607 333.69 218.385 334.003 218.051C334.315 217.718 334.508 217.29 334.552 216.835C334.597 216.381 334.49 215.924 334.248 215.536C334.006 215.148 333.643 214.851 333.215 214.691C330.049 213.575 326.781 212.773 323.459 212.297C317.473 211.179 311.418 210.092 305.372 209.104C293.186 206.999 280.883 205.633 268.531 205.014C248.021 204.186 227.331 206.341 207.05 203.159C187.777 200.166 169.601 192.435 151.664 184.743C147.345 182.888 142.935 180.962 139.543 177.76C136.89 175.216 134.755 171.834 131.363 170.159C127.971 168.483 123.602 168.722 119.791 168.902C112.285 169.409 104.82 170.409 97.4452 171.894C96.0486 174.089 94.7517 176.374 93.5247 178.678Z" fill="url(#paint2_linear_17_148)"/>
<path d="M331.09 205.772L245.477 168.532C243.629 167.603 241.542 167.255 239.492 167.535L133.568 176.583C131.573 176.872 131.902 185.561 133.568 186.978L196.107 240.209C197.986 241.865 200.234 243.048 202.664 243.659C205.093 244.27 207.634 244.291 210.073 243.721L330.352 214.491C331.878 214.072 332.537 206.511 331.09 205.772Z" fill="#402B4C"/>
<path d="M331.09 205.772L245.477 168.532C243.629 167.603 241.542 167.255 239.492 167.535L133.568 176.583C131.573 176.872 131.902 185.561 133.568 186.978L196.107 240.209C197.986 241.865 200.234 243.048 202.664 243.659C205.093 244.27 207.634 244.291 210.073 243.721L330.352 214.491C331.878 214.072 332.537 206.511 331.09 205.772Z" fill="url(#paint3_linear_17_148)"/>
<path d="M133.568 180.753L196.097 233.984C197.975 235.642 200.224 236.825 202.654 237.434C205.084 238.043 207.625 238.061 210.063 237.486L330.292 208.266C330.779 208.06 331.163 207.668 331.362 207.178C331.56 206.688 331.556 206.14 331.35 205.653C331.193 205.284 330.929 204.971 330.591 204.755L297.621 186.15L288.972 181.292L262.646 166.438C260.797 165.508 258.71 165.16 256.66 165.44L134.655 176.064C132.62 176.354 131.952 179.356 133.568 180.753Z" fill="#402B4C"/>
<path d="M256.71 168.383L145.14 184.893L179.487 212.765L293.98 189.602L256.71 168.383Z" fill="url(#paint4_linear_17_148)"/>
<path d="M268.382 196.525L222.403 205.812L246.176 225.205L293.98 214.481L268.382 196.525Z" fill="url(#paint5_linear_17_148)"/>
<path d="M291.366 217.843C290.899 218.79 290.234 219.627 289.417 220.296C288.599 220.965 287.649 221.452 286.628 221.724C283.256 222.532 263.564 227.57 263.564 227.57C263.564 227.57 260.361 227.959 258.576 225.814L291.366 217.843Z" fill="url(#paint6_linear_17_148)"/>
<path d="M260.202 165.44L134.296 183.397C133.373 183.524 132.436 183.295 131.676 182.755C130.916 182.216 130.39 181.407 130.206 180.494L112.25 89.7929C111.875 87.9792 112.237 86.0912 113.255 84.544C114.272 82.9969 115.863 81.9173 117.676 81.5428C117.956 81.4834 118.239 81.4434 118.524 81.4231L242.864 70.4496C244.697 70.2768 246.524 70.835 247.948 72.0027C249.371 73.1703 250.276 74.853 250.465 76.6846L260.202 165.44Z" fill="#402B4C"/>
<path d="M260.202 165.44L134.625 183.307C133.612 183.454 132.58 183.206 131.745 182.613C130.909 182.021 130.333 181.13 130.136 180.124L112.24 89.7929C111.865 87.9792 112.227 86.0912 113.245 84.544C114.262 82.9969 115.853 81.9173 117.666 81.5428C117.946 81.4834 118.229 81.4434 118.514 81.4231L242.864 70.4496C244.697 70.2768 246.524 70.835 247.948 72.0027C249.371 73.1703 250.276 74.853 250.465 76.6846L260.202 165.44Z" fill="url(#paint7_linear_17_148)"/>
<path d="M136.561 178.139L118.684 86.6205L245.816 77.7819L255.902 164.422L136.561 178.139Z" fill="#FAF4FC"/>
<path d="M313.942 141.558C313.942 150.405 310.427 158.89 304.171 165.146C297.915 171.402 289.43 174.917 280.582 174.917C271.735 174.917 263.25 171.402 256.994 165.146C250.738 158.89 247.223 150.405 247.223 141.558C247.206 140.709 247.239 139.859 247.323 139.014C247.989 130.418 251.957 122.415 258.395 116.681C264.833 110.947 273.24 107.928 281.855 108.257C290.47 108.585 298.623 112.237 304.605 118.445C310.587 124.653 313.933 132.936 313.942 141.558V141.558Z" fill="#86DFED"/>
<path opacity="0.14" d="M266.556 156.711C265.459 161.529 266.806 166.687 265.818 171.475C258.115 167.661 252.172 161.033 249.218 152.96C249.057 151.298 249.1 149.623 249.348 147.972C249.723 146.218 249.74 144.406 249.398 142.645C248.921 141.321 248.219 140.089 247.323 139.004C247.696 134.123 249.142 129.384 251.556 125.125C253.97 120.866 257.293 117.191 261.289 114.363C261.329 114.588 261.329 114.817 261.289 115.042L259.862 121.396C260.142 123.278 260.142 125.191 259.862 127.073C259.708 128.011 259.352 128.905 258.818 129.692C258.284 130.479 257.585 131.141 256.77 131.632C256.15 131.883 255.55 132.18 254.974 132.52C254.425 132.973 253.965 133.524 253.618 134.146C252.707 135.434 252.032 136.872 251.622 138.395C251.42 139.159 251.41 139.961 251.595 140.729C251.779 141.497 252.152 142.207 252.68 142.795L261.977 140.989C262.975 140.8 264.132 140.67 264.8 141.408C265.469 142.146 265.1 143.673 265.279 144.85C265.499 146.356 266.836 147.433 267.454 148.84C268.482 151.304 267.175 154.077 266.556 156.711Z" fill="#333333"/>
<path opacity="0.14" d="M313.942 141.558C313.948 146.603 312.807 151.585 310.605 156.125C308.403 160.665 305.198 164.645 301.232 167.764C300.775 167.457 300.383 167.064 300.075 166.607C299.572 165.859 299.386 164.943 299.558 164.058C299.73 163.173 300.246 162.393 300.993 161.889V161.889C300.434 162.178 298.23 161.46 297.571 161.35L294.14 160.821C292.494 160.572 289.62 160.671 288.663 159.015C288.555 158.787 288.424 158.57 288.274 158.367C288.075 158.156 287.833 157.989 287.565 157.878C286.568 157.369 285.321 156.801 285.071 155.674C284.902 154.856 285.311 153.918 284.892 153.18C284.752 152.96 284.553 152.781 284.423 152.551C284.277 152.212 284.221 151.841 284.261 151.473C284.301 151.106 284.436 150.756 284.652 150.456C286.099 147.922 289.102 146.705 291.975 146.216C294.848 145.728 297.821 145.807 300.624 144.989C302.341 144.322 304.105 143.782 305.901 143.373C306.899 143.234 308.156 143.134 308.525 142.186C308.734 141.657 308.525 141.029 308.744 140.49C308.824 140.261 308.974 140.051 309.063 139.822C309.173 139.475 309.142 139.099 308.975 138.776C308.809 138.453 308.522 138.208 308.176 138.096C308.092 138.067 308.005 138.047 307.916 138.036C308.146 137.408 308.335 136.61 307.846 136.161C307.674 136.033 307.473 135.949 307.261 135.916C307.049 135.883 306.832 135.902 306.629 135.971C305.432 136.28 304.564 137.288 303.557 137.966C300.225 140.331 295.666 139.493 292.883 136.709C292.429 136.312 292.105 135.787 291.955 135.203C291.917 134.707 292.032 134.211 292.285 133.783C292.539 133.354 292.918 133.014 293.371 132.809C294.281 132.417 295.264 132.223 296.254 132.24L295.157 125.008C289.611 126.494 287.356 121.217 286.568 116.827C285.78 112.438 288.892 110.842 292.913 110.573C299.114 113.042 304.433 117.315 308.181 122.838C311.93 128.362 313.937 134.882 313.942 141.558V141.558Z" fill="#333333"/>
<path d="M154.208 144.082C155.206 153.06 155.265 162.148 156.871 171.016C157.241 173.012 157.869 175.286 159.645 176.294C161.065 176.912 162.647 177.052 164.154 176.693C173.639 175.391 182.868 172.638 191.518 168.532C189.007 156.631 185.301 145.013 180.454 133.856C179.188 130.963 177.801 128.03 175.546 125.816C172.125 122.464 167.386 121.406 162.837 120.509C160.473 120.04 158.069 119.72 155.724 119.122C154.278 118.753 150.168 116.339 148.971 116.568C144.98 117.316 148.971 123.621 149.968 126.065C152.223 131.841 153.65 137.906 154.208 144.082V144.082Z" fill="url(#paint8_linear_17_148)"/>
<path d="M237.846 113.755L142.766 122.763L140.342 111.65L235.432 102.632L237.846 113.755Z" fill="#402B4C"/>
<path d="M237.846 113.755L142.766 122.763L140.342 111.65L235.432 102.632L237.846 113.755Z" fill="url(#paint9_linear_17_148)"/>
<path d="M227.591 107.241C234.933 106.453 242.046 111.131 245.976 117.376C249.907 123.621 250.964 126.644 251.463 134.006C251.622 136.4 251.822 139.054 253.588 140.68C256.531 143.383 261.13 141.278 264.98 140.221C274.108 137.707 284.712 143.054 288.124 151.893C291.456 160.522 286.688 173.331 294.269 178.638C301.023 183.347 319.209 171.984 324.905 161.759C324.905 161.759 326.561 184.215 308.834 195.437C282.528 212.097 233.217 218.571 228.03 218.013C219.4 217.065 209.983 214.072 205.853 206.441C201.723 198.809 204.397 189.212 204.397 180.404C204.397 175.336 202.112 168.991 197.044 168.882C193.254 168.792 190.51 172.403 188.745 175.755C186.979 179.107 185.133 182.968 181.532 184.165C178.32 185.232 174.669 183.646 172.464 181.082C170.259 178.518 169.252 175.097 168.573 171.815C166.229 160.302 167.296 148.341 165.411 136.739C164.693 132.33 163.416 127.811 160.423 124.509C157.43 121.207 150.397 116.319 145.03 116.528L227.591 107.241Z" fill="#402B4C"/>
<path d="M227.591 107.241C234.933 106.453 242.046 111.131 245.976 117.376C249.907 123.621 250.964 126.644 251.463 134.006C251.623 136.4 251.822 139.054 253.588 140.68C256.531 143.383 261.13 141.278 264.98 140.221C274.108 137.707 284.712 143.054 288.124 151.893C290.898 159.075 289.242 167.136 291.925 174.328C293.481 178.518 295.985 179.017 300.345 178.708C304.595 178.302 308.662 176.781 312.136 174.299C317.354 170.697 321.364 165.639 325.294 160.661C324.367 166.797 324.526 173.171 322.441 179.007C319 188.664 310.071 195.208 301.163 200.286C286.012 208.905 269.58 215.048 252.49 218.482C244.51 220.098 236.15 218.851 228.069 217.973C219.44 216.975 210.023 213.983 205.893 206.401C201.763 198.819 204.447 189.173 204.477 180.364C204.477 175.296 202.192 168.951 197.124 168.842C193.333 168.752 190.59 172.363 188.824 175.715C187.059 179.067 185.213 182.928 181.612 184.125C178.4 185.192 174.748 183.606 172.544 181.042C170.339 178.478 169.332 175.057 168.653 171.775C166.309 160.262 167.376 148.301 165.491 136.699C164.773 132.29 163.496 127.721 160.503 124.469C157.51 121.217 150.477 116.279 145.11 116.488L227.591 107.241Z" fill="url(#paint10_linear_17_148)"/>
<path d="M258.585 141.907L196.585 165.35C196.585 165.35 193.164 166.178 188.824 175.755C184.485 185.332 169.012 188.724 168.224 158.158C167.436 127.591 165.82 129.527 161.939 123.182L251.283 132.021C251.283 132.021 250.695 144.151 258.585 141.907Z" fill="url(#paint11_linear_17_148)"/>
<path d="M181.482 121.546L228.329 116.548" stroke="#333333" stroke-width="1.99518" stroke-linecap="round" stroke-linejoin="round"/>
<path d="M186.839 136.55L233.686 131.552" stroke="#333333" stroke-width="1.99518" stroke-linecap="round" stroke-linejoin="round"/>
<path d="M189.094 146.556L235.95 141.558" stroke="#333333" stroke-width="1.99518" stroke-linecap="round" stroke-linejoin="round"/>
<path d="M221.605 125.367L230.703 124.399" stroke="#333333" stroke-width="1.99518" stroke-linecap="round" stroke-linejoin="round"/>
<path d="M203.399 127.312L215.729 125.995" stroke="#333333" stroke-width="1.99518" stroke-linecap="round" stroke-linejoin="round"/>
<path d="M183.846 129.397L194.86 128.22" stroke="#333333" stroke-width="1.99518" stroke-linecap="round" stroke-linejoin="round"/>
<path d="M224.289 166.507L270.158 149.479" stroke="#333333" stroke-width="1.99518" stroke-linecap="round" stroke-linejoin="round"/>
<path d="M228.01 181.421L273.879 164.392" stroke="#333333" stroke-width="1.99518" stroke-linecap="round" stroke-linejoin="round"/>
<path d="M229.217 191.696L275.096 174.668" stroke="#333333" stroke-width="1.99518" stroke-linecap="round" stroke-linejoin="round"/>
<path d="M262.785 160.691L271.684 157.389" stroke="#333333" stroke-width="1.99518" stroke-linecap="round" stroke-linejoin="round"/>
<path d="M244.958 167.305L257.029 162.826" stroke="#333333" stroke-width="1.99518" stroke-linecap="round" stroke-linejoin="round"/>
<path d="M225.815 174.418L236.599 170.408" stroke="#333333" stroke-width="1.99518" stroke-linecap="round" stroke-linejoin="round"/>
<path opacity="0.45" d="M320.596 167.435C320.596 167.435 277.699 205.722 248.769 201.642C248.769 201.642 224.997 228.487 215.679 212.775C206.362 197.063 222.353 186.948 222.353 186.948L291.875 174.328C291.875 174.328 296.484 189.841 320.596 167.435Z" fill="url(#paint12_linear_17_148)"/>
<path d="M110.055 230.802C110.145 231.959 111.791 231.979 113.656 231.799C115.522 231.62 115.023 232.059 117.646 232.089C120.27 232.119 121.168 231.261 121.298 230.892C121.427 230.523 120.15 230.283 118.804 229.954L118.285 229.824C116.769 229.435 115.761 228.298 114.464 227.31C113.167 226.323 111.651 222.961 111.651 222.961L108.07 222.801C108.07 222.801 109.576 225.854 110.145 227.171C110.374 227.973 110.374 228.823 110.145 229.625C110.065 230.012 110.035 230.407 110.055 230.802V230.802Z" fill="#F4BE8C"/>
<path d="M113.616 231.76C115.482 231.54 114.983 232.019 117.607 232.049C120.23 232.079 121.128 231.221 121.258 230.852C121.387 230.483 120.111 230.243 118.764 229.914C117.568 230.483 116.242 230.721 114.923 230.602C113.167 230.423 111.382 229.695 110.175 229.605C110.077 230.003 110.033 230.412 110.045 230.822C110.145 231.959 111.791 231.979 113.616 231.76Z" fill="#333333"/>
<path d="M86.2623 229.625L86.6514 229.824C88.257 230.535 89.9273 231.09 91.6393 231.48C92.1993 231.643 92.7871 231.687 93.3651 231.61C93.726 231.539 94.0668 231.389 94.3627 231.171C94.5024 231.061 94.642 230.892 94.5622 230.742C94.5364 230.685 94.4949 230.637 94.4425 230.602C93.6843 229.994 92.7366 229.804 91.9386 229.256C91.1405 228.707 90.502 228.078 89.7638 227.52C88.5268 226.572 89.7638 220.996 89.7638 220.996L85.8433 220.616C85.8433 220.616 86.0229 225.315 86.0229 227.44C86.0229 228.078 85.4842 228.936 86.0229 229.435C86.091 229.512 86.172 229.576 86.2623 229.625V229.625Z" fill="#F4BE8C"/>
<path d="M89.0057 231.959C89.7177 232.282 90.451 232.555 91.2004 232.777C91.926 233.029 92.687 233.163 93.455 233.176C94.2307 233.198 94.9895 232.947 95.5998 232.468C95.6818 232.413 95.7511 232.34 95.8027 232.256C95.8543 232.172 95.8872 232.077 95.899 231.979C95.887 231.807 95.8206 231.642 95.7095 231.51C95.3473 230.998 94.873 230.575 94.3229 230.273C94.0336 230.133 93.864 230.273 93.5846 230.423C93.2619 230.553 92.928 230.653 92.5871 230.722C91.415 230.963 90.2018 230.912 89.0539 230.575C87.9059 230.237 86.8583 229.623 86.003 228.787C86.003 228.787 85.9331 228.697 85.8833 228.687C85.8334 228.677 85.6837 228.787 85.6638 228.906C85.6187 229.093 85.6131 229.287 85.6474 229.476C85.6818 229.665 85.7553 229.845 85.8633 230.004C86.0497 230.259 86.2834 230.476 86.5517 230.642C87.3256 231.159 88.1474 231.6 89.0057 231.959Z" fill="#333333"/>
<path d="M96.9765 134.684C97.0647 134.067 97.098 133.442 97.0762 132.819C97.0681 132.174 96.9038 131.541 96.5974 130.973C96.3879 130.594 95.8093 130.245 95.6597 129.896C95.1081 128.8 94.3289 127.834 93.3741 127.063C92.4192 126.293 91.3109 125.735 90.1231 125.427C88.3765 125.188 86.5981 125.426 84.9755 126.115C84.5479 126.226 84.1474 126.423 83.7984 126.694C83.5021 126.994 83.2741 127.355 83.13 127.751C82.7433 128.587 82.4102 129.447 82.1324 130.325C81.3837 129.202 80.3512 128.296 79.1396 127.701C78.4283 127.465 77.6681 127.416 76.9324 127.56C76.1968 127.703 75.5105 128.033 74.9398 128.519C74.3804 129.013 73.9247 129.613 73.5993 130.284C73.2739 130.955 73.0852 131.685 73.0444 132.43C73.0863 133.389 73.0127 134.351 72.8249 135.293C72.6362 135.841 72.2998 136.327 71.8527 136.697C71.4056 137.066 70.8652 137.306 70.291 137.388C70.8452 138.216 71.6297 138.865 72.5479 139.253C73.4662 139.641 74.478 139.752 75.4585 139.572C75.1093 140.362 74.7095 141.129 74.2614 141.867C75.5326 142.232 76.8916 142.14 78.1021 141.608C78.8768 141.051 79.5008 140.311 79.9177 139.453L79.0897 141.258C80.5263 139.902 80.1671 137.268 81.6635 136.001C82.0925 136.211 82.2521 136.739 82.5514 137.108C82.8506 137.478 83.549 137.607 83.7086 137.108C83.8054 138.247 84.1899 139.342 84.8259 140.291C85.2624 140.861 85.8335 141.315 86.488 141.611C87.1425 141.906 87.8602 142.036 88.5768 141.987C88.8461 141.987 89.1853 141.787 89.0955 141.548C89.744 141.408 90.0931 140.71 90.6717 140.361C91.4199 139.892 92.3876 140.121 93.2655 139.972C93.7911 139.852 94.2865 139.626 94.7208 139.307C95.155 138.988 95.5188 138.582 95.7894 138.116C96.43 137.072 96.8351 135.901 96.9765 134.684V134.684Z" fill="#333333"/>
<path d="M94.3028 145.209C93.1886 145.816 91.9079 146.047 90.6516 145.867C89.5827 145.417 88.7164 144.59 88.2175 143.543C88.846 143.413 89.0256 142.545 89.0156 138.844L89.2949 138.904L94.0734 139.842C94.0734 139.842 93.9636 141.348 93.9636 142.765C93.9537 143.952 94.0335 145.079 94.3028 145.209Z" fill="#F4BE8C"/>
<path d="M94.0734 139.842C94.0734 139.842 93.9636 141.348 93.9636 142.765C91.2901 142.685 89.8735 140.251 89.2949 138.904L94.0734 139.842Z" fill="#F4BE8C"/>
<path d="M113.496 224.816C113.587 225.115 113.556 225.438 113.411 225.714C113.265 225.991 113.016 226.199 112.718 226.293C112.622 226.308 112.525 226.308 112.429 226.293L110.564 226.383L108.568 226.442C108.324 226.452 108.081 226.404 107.859 226.302C107.637 226.199 107.443 226.046 107.291 225.854C103.112 220.567 99.9373 214.558 97.9241 208.127C97.8443 207.867 97.7545 207.598 97.6647 207.329C95.6696 201.672 91.6792 194.56 89.5743 188.125C89.2351 187.127 88.9358 186.13 88.6565 185.232C88.5767 184.933 88.4869 184.643 88.4071 184.364C87.202 180.194 86.397 175.918 86.0029 171.595L101.326 171.715C103.941 189.715 108.011 207.474 113.496 224.816V224.816Z" fill="#333333"/>
<path d="M99.181 162.926C99.181 170.218 100.248 173.341 100.248 173.341C95.7246 175.35 90.6281 175.662 85.8931 174.219L79.4387 172.742C79.5684 172.443 80.7256 167.535 80.8553 167.266C82.5013 163.724 83.7483 162.178 83.9478 161.09C84.2801 159.073 84.3438 157.02 84.1374 154.985C83.8267 151.734 83.1917 148.523 82.2419 145.398C84.3959 144.818 86.5088 144.095 88.5666 143.234C89.5037 144.071 90.7222 144.523 91.9784 144.501C93.5346 144.501 94.0334 143.802 93.9736 143.074C95.6296 143.992 96.9663 144.86 96.9663 144.86C98.3729 147.304 101.226 149.678 101.426 153.429C101.446 154.347 99.181 162.726 99.181 162.926Z" fill="#FAF4FC"/>
<path d="M86.003 163.734C85.3346 164.682 84.0078 170.448 80.8555 171.176C82.5015 167.066 83.7485 165.26 83.948 164.003C84.2803 161.654 84.3439 159.274 84.1375 156.911C85.2049 155.035 86.003 153.748 86.003 153.748C86.0928 153.449 87.6989 148.451 88.2177 152.92C88.4764 156.659 87.7107 160.398 86.003 163.734Z" fill="#402B4C"/>
<path d="M94.9612 141.189C94.9612 141.189 88.6465 141.288 88.6365 137.358C88.6266 133.427 87.8185 130.784 91.8488 130.544C95.879 130.305 96.6771 131.811 96.9963 133.128C97.3155 134.445 96.6571 141.059 94.9612 141.189Z" fill="#F4BE8C"/>
<path d="M94.7317 130.455C94.7317 130.455 92.9959 135.073 90.3423 135.752C87.6887 136.43 86.5415 135.752 86.5415 135.752C87.8488 134.601 88.7162 133.032 88.9956 131.312C88.9956 131.312 93.4249 128.25 94.7317 130.455Z" fill="#333333"/>
<path d="M94.3027 130.824C94.9807 131.36 95.5295 132.042 95.9089 132.819C96.2281 133.816 96.3677 135.881 96.9663 135.812C96.9663 135.812 98.2731 132.679 96.8067 130.903C95.3402 129.128 94.3027 130.824 94.3027 130.824Z" fill="#333333"/>
<path d="M107.431 165.749L112.17 174.079L110.633 175.077L104.199 168.183L107.431 165.749Z" fill="#F4BE8C"/>
<path d="M94.8416 144.171C94.8416 144.171 98.5626 144.84 99.9991 146.765C101.436 148.69 105.845 162.726 106.743 164.053C107.641 165.38 108.329 166.477 108.329 166.477C107.498 167.506 106.406 168.292 105.167 168.752C103.441 169.221 94.8416 144.171 94.8416 144.171Z" fill="#86DFED"/>
<path d="M93.9536 143.074C93.9536 143.074 97.6148 152.102 97.7245 153.938C97.8342 155.773 98.1535 183.865 98.1535 183.865C98.1535 183.865 97.934 185.152 100.408 184.614C101.51 184.47 102.572 184.107 103.53 183.546C103.53 183.546 101.166 166.228 101.805 160.213C102.443 154.197 96.8167 144.371 96.8167 144.371L93.9536 143.074Z" fill="#86DFED"/>
<path d="M110.564 226.462L108.429 226.522C108.239 226.532 108.049 226.496 107.876 226.418C107.702 226.34 107.55 226.222 107.431 226.073C103.201 220.751 99.9882 214.694 97.954 208.207C97.8742 207.947 97.7844 207.678 97.6946 207.408C95.6994 201.752 91.7091 194.639 89.6042 188.205C89.265 187.207 88.9657 186.21 88.6864 185.312C88.6066 185.013 88.5168 184.723 88.437 184.444L90.6916 182.738C90.6916 182.738 97.4652 193.712 99.5601 204.027C101.386 212.955 108.678 223.749 110.564 226.462Z" fill="url(#paint13_linear_17_148)"/>
<path d="M90.931 204.954C90.931 209.703 90.7414 220.287 90.1628 225.455C90.1405 225.685 90.0329 225.898 89.8613 226.054C89.6897 226.209 89.4663 226.294 89.2351 226.293H86.1226C85.9813 226.289 85.8453 226.238 85.7367 226.147C85.6281 226.057 85.5532 225.932 85.5241 225.794C83.9379 217.704 82.8006 210.99 81.9726 205.184C81.2743 200.316 80.6558 196.206 80.177 192.564C79.6982 188.923 79.359 185.93 79.2393 183.377V181.092L92.4772 179.805C92.2677 188.554 90.911 202.041 90.931 204.954Z" fill="#333333"/>
<path d="M87.6788 226.293H86.2323C86.0612 226.29 85.8961 226.229 85.7639 226.12C85.6317 226.012 85.5401 225.862 85.5041 225.694C83.9279 217.644 82.8006 210.96 81.9726 205.184C81.2743 200.316 80.6558 196.206 80.177 192.564C79.6982 188.923 79.359 185.93 79.2393 183.377L84.0975 186.24C84.0975 186.24 81.005 187.327 82.1821 195.607C83.3593 203.887 85.9829 225.116 87.6788 226.293Z" fill="url(#paint14_linear_17_148)"/>
<path d="M88.2574 183.287C88.2574 183.287 87.3297 186.659 84.0975 186.23C81.4179 185.719 78.7996 184.926 76.2864 183.865C76.2864 183.865 77.663 179.506 79.3789 173.78C81.4539 166.856 84.0277 157.928 85.2347 152.292C85.5236 151.024 85.7433 149.742 85.8931 148.451L88.5667 143.254C88.5667 143.254 92.557 152.232 92.7765 154.466C92.996 156.701 88.2574 183.287 88.2574 183.287Z" fill="#86DFED"/>
<path d="M88.1178 159.205C87.9681 162.856 87.1202 169.959 79.4388 173.75H79.3789C81.4539 166.827 84.0277 157.898 85.2347 152.262C86.6812 154.397 88.1976 157.19 88.1178 159.205Z" fill="url(#paint15_linear_17_148)"/>
<path d="M88.5667 143.254C88.5667 143.254 82.0225 143.722 80.4463 147.244C78.8701 150.765 78.94 155.394 79.0896 159.145C79.1794 161.42 79.2393 163.784 80.3067 165.849C81.7435 168.243 83.5061 170.425 85.544 172.333C85.8468 172.705 86.2426 172.991 86.6912 173.161C87.1942 173.259 87.7154 173.193 88.1776 172.972C89.2518 172.544 90.2239 171.895 91.0307 171.066C90.7015 170.777 90.5718 170.069 90.3225 169.64C89.9508 169.033 89.6176 168.403 89.3249 167.754C88.7255 166.447 88.0596 165.172 87.3297 163.934C86.5803 162.935 85.9131 161.877 85.3345 160.771C85.0819 160.204 84.9572 159.588 84.9693 158.968C84.9813 158.347 85.1299 157.737 85.4043 157.18C85.8308 155.787 86.164 154.367 86.4019 152.93C87.1202 149.708 87.8385 146.476 88.5667 143.254Z" fill="#86DFED"/>
<path fill-rule="evenodd" clip-rule="evenodd" d="M124.171 219.02C122.794 218.402 121.677 219.19 121.677 220.786C121.711 221.61 121.959 222.412 122.396 223.111C122.833 223.811 123.445 224.385 124.171 224.776C125.547 225.395 126.655 224.607 126.655 223.011C126.623 222.187 126.377 221.386 125.941 220.687C125.506 219.987 124.895 219.413 124.171 219.02V219.02Z" fill="#402B4C"/>
<path fill-rule="evenodd" clip-rule="evenodd" d="M123.373 218.801C122.85 218.772 122.327 218.85 121.836 219.03C121.527 219.17 123.592 220.347 123.373 218.801Z" fill="#402B4C"/>
<path fill-rule="evenodd" clip-rule="evenodd" d="M124.151 225.116C124.669 225.148 125.189 225.073 125.677 224.896C125.986 224.756 123.901 223.579 124.151 225.116Z" fill="#402B4C"/>
<path fill-rule="evenodd" clip-rule="evenodd" d="M123.263 219.13C121.886 218.512 120.779 219.3 120.779 220.896C120.809 221.72 121.054 222.522 121.49 223.221C121.926 223.921 122.537 224.495 123.263 224.886C124.639 225.515 125.757 224.727 125.757 223.13C125.722 222.305 125.475 221.502 125.037 220.801C124.6 220.1 123.989 219.524 123.263 219.13V219.13Z" fill="#402B4C"/>
<path fill-rule="evenodd" clip-rule="evenodd" d="M123.263 221.175C122.864 220.986 122.535 221.225 122.535 221.694C122.542 221.937 122.614 222.173 122.741 222.38C122.869 222.586 123.049 222.756 123.263 222.871C123.672 223.051 124.001 222.821 124.001 222.352C123.993 222.108 123.92 221.871 123.79 221.665C123.66 221.458 123.479 221.289 123.263 221.175V221.175Z" fill="#402B4C"/>
<path fill-rule="evenodd" clip-rule="evenodd" d="M107.571 212.616L133.109 230.443L132.78 231.131L107.241 213.294L107.571 212.616Z" fill="#402B4C"/>
<path fill-rule="evenodd" clip-rule="evenodd" d="M110.803 211.648L136.341 229.475L136.022 230.163L110.474 212.327L110.803 211.648Z" fill="#402B4C"/>
<path fill-rule="evenodd" clip-rule="evenodd" d="M114.334 209.274L139.873 227.101L139.543 227.769L114.005 209.952L114.334 209.274Z" fill="#402B4C"/>
<path fill-rule="evenodd" clip-rule="evenodd" d="M117.976 208.376L143.514 226.203L143.185 226.891L117.646 209.054L117.976 208.376Z" fill="#402B4C"/>
<path fill-rule="evenodd" clip-rule="evenodd" d="M139.553 229.764C138.177 229.146 137.069 229.934 137.069 231.53C137.102 232.354 137.347 233.155 137.783 233.854C138.219 234.554 138.829 235.128 139.553 235.52C140.93 236.139 142.047 235.351 142.047 233.755C142.013 232.93 141.765 232.129 141.328 231.43C140.891 230.73 140.279 230.156 139.553 229.764Z" fill="#402B4C"/>
<path fill-rule="evenodd" clip-rule="evenodd" d="M138.785 229.545C138.263 229.516 137.74 229.594 137.249 229.774C136.94 229.914 139.025 231.091 138.785 229.545Z" fill="#402B4C"/>
<path fill-rule="evenodd" clip-rule="evenodd" d="M139.553 235.86C140.075 235.892 140.598 235.817 141.09 235.64C141.409 235.5 139.324 234.323 139.553 235.86Z" fill="#402B4C"/>
<path fill-rule="evenodd" clip-rule="evenodd" d="M138.676 229.874C137.309 229.256 136.192 230.044 136.192 231.64C136.222 232.464 136.467 233.266 136.903 233.966C137.338 234.665 137.95 235.239 138.676 235.63C140.052 236.259 141.17 235.471 141.17 233.874C141.135 233.049 140.887 232.246 140.45 231.545C140.013 230.844 139.402 230.268 138.676 229.874Z" fill="#402B4C"/>
<path fill-rule="evenodd" clip-rule="evenodd" d="M138.676 231.919C138.276 231.73 137.947 231.969 137.947 232.438C137.955 232.681 138.026 232.917 138.154 233.124C138.282 233.33 138.462 233.5 138.676 233.615C139.085 233.795 139.414 233.615 139.414 233.096C139.405 232.852 139.332 232.615 139.203 232.409C139.073 232.202 138.891 232.033 138.676 231.919Z" fill="#402B4C"/>
<path fill-rule="evenodd" clip-rule="evenodd" d="M139.264 228.667C139.258 228.503 139.197 228.345 139.09 228.22C138.983 228.095 138.837 228.01 138.676 227.979C138.614 227.966 138.55 227.965 138.489 227.976C138.427 227.987 138.368 228.011 138.315 228.045C138.262 228.08 138.216 228.124 138.181 228.176C138.145 228.228 138.12 228.286 138.107 228.348C138.102 228.388 138.102 228.428 138.107 228.467V232.657C138.112 232.82 138.172 232.977 138.277 233.101C138.382 233.226 138.526 233.312 138.686 233.346C138.745 233.362 138.806 233.367 138.867 233.359C138.928 233.351 138.986 233.332 139.039 233.301C139.092 233.27 139.139 233.229 139.175 233.18C139.212 233.132 139.239 233.076 139.254 233.016C139.264 232.967 139.264 232.916 139.254 232.867L139.264 228.667Z" fill="#402B4C"/>
<path fill-rule="evenodd" clip-rule="evenodd" d="M123.851 217.933C123.844 217.768 123.782 217.61 123.676 217.484C123.569 217.357 123.424 217.27 123.263 217.235C123.2 217.221 123.135 217.221 123.072 217.233C123.009 217.245 122.949 217.269 122.895 217.304C122.841 217.339 122.795 217.385 122.759 217.438C122.723 217.491 122.697 217.551 122.684 217.614C122.679 217.65 122.679 217.687 122.684 217.723V221.913C122.69 222.078 122.752 222.235 122.858 222.36C122.965 222.485 123.111 222.57 123.273 222.602C123.332 222.618 123.393 222.623 123.454 222.615C123.515 222.607 123.573 222.588 123.626 222.557C123.679 222.526 123.726 222.485 123.763 222.436C123.8 222.388 123.826 222.332 123.841 222.272C123.851 222.223 123.851 222.172 123.841 222.123L123.851 217.933Z" fill="#402B4C"/>
<path fill-rule="evenodd" clip-rule="evenodd" d="M124.649 187.267L125.467 210.92C125.468 211.013 125.502 211.103 125.562 211.174C125.622 211.245 125.705 211.293 125.797 211.309C125.833 211.312 125.87 211.307 125.905 211.296C125.94 211.284 125.972 211.266 126 211.242C126.028 211.217 126.051 211.188 126.067 211.155C126.084 211.122 126.093 211.086 126.096 211.05V211L125.288 187.347C125.283 187.255 125.249 187.167 125.189 187.097C125.13 187.026 125.049 186.978 124.959 186.958C124.922 186.954 124.885 186.957 124.849 186.967C124.814 186.978 124.781 186.995 124.752 187.018C124.723 187.041 124.699 187.07 124.682 187.102C124.664 187.135 124.653 187.171 124.649 187.207V187.267ZM145.12 201.732L141.13 221.983C141.114 222.075 141.13 222.17 141.175 222.252C141.22 222.333 141.292 222.397 141.379 222.432C141.412 222.447 141.447 222.454 141.482 222.454C141.518 222.455 141.553 222.447 141.586 222.433C141.619 222.419 141.648 222.399 141.673 222.373C141.697 222.347 141.716 222.316 141.728 222.282C141.732 222.263 141.732 222.242 141.728 222.223L145.718 201.982C145.743 201.894 145.736 201.8 145.7 201.717C145.663 201.633 145.6 201.565 145.519 201.523C145.454 201.495 145.38 201.492 145.314 201.517C145.247 201.541 145.192 201.589 145.16 201.652C145.155 201.675 145.155 201.699 145.16 201.722L145.12 201.732ZM130.266 191.228L128.789 213.324C128.784 213.418 128.81 213.51 128.865 213.587C128.919 213.663 128.998 213.718 129.089 213.743C129.16 213.758 129.234 213.745 129.296 213.705C129.357 213.666 129.401 213.605 129.418 213.534L130.894 191.427C130.9 191.334 130.873 191.241 130.819 191.165C130.764 191.088 130.685 191.033 130.595 191.008C130.524 190.993 130.449 191.007 130.388 191.046C130.326 191.085 130.283 191.147 130.266 191.218C130.266 191.221 130.266 191.224 130.266 191.228V191.228ZM139.783 197.951L136.162 218.482C136.151 218.573 136.17 218.666 136.217 218.745C136.264 218.824 136.335 218.886 136.421 218.921C136.483 218.949 136.554 218.952 136.619 218.93C136.684 218.908 136.738 218.862 136.77 218.801C136.775 218.771 136.775 218.741 136.77 218.711L140.381 198.201C140.396 198.109 140.379 198.015 140.334 197.934C140.288 197.852 140.217 197.788 140.132 197.752C140.099 197.737 140.064 197.73 140.029 197.73C139.993 197.729 139.958 197.737 139.925 197.751C139.892 197.765 139.863 197.785 139.838 197.811C139.814 197.837 139.795 197.868 139.783 197.901C139.778 197.924 139.778 197.948 139.783 197.971V197.951ZM132.48 215.908C132.471 216 132.494 216.093 132.545 216.171C132.596 216.249 132.671 216.308 132.76 216.337C132.823 216.36 132.893 216.357 132.955 216.329C133.016 216.301 133.064 216.25 133.089 216.187C133.094 216.157 133.094 216.127 133.089 216.097L135.763 194.919C135.768 194.843 135.752 194.768 135.716 194.701C135.681 194.634 135.628 194.578 135.563 194.54C135.53 194.527 135.495 194.521 135.46 194.522C135.425 194.524 135.391 194.532 135.359 194.547C135.328 194.562 135.299 194.583 135.276 194.609C135.253 194.635 135.235 194.666 135.224 194.699C135.219 194.726 135.219 194.753 135.224 194.779L132.48 215.908Z" fill="#402B4C"/>
<path fill-rule="evenodd" clip-rule="evenodd" d="M120.071 184.564L151.784 207.129L145.798 224.397L121.597 207.229L120.071 184.564ZM120.759 208.127L145.858 225.993C145.913 226.041 145.977 226.077 146.046 226.1C146.115 226.123 146.187 226.132 146.26 226.126C146.332 226.12 146.403 226.101 146.467 226.068C146.532 226.035 146.589 225.989 146.636 225.934L146.706 225.824L153.171 207.239C153.219 207.076 153.215 206.901 153.16 206.74C153.104 206.58 153 206.44 152.861 206.341L119.602 182.738C119.547 182.691 119.483 182.654 119.414 182.632C119.345 182.609 119.273 182.6 119.2 182.606C119.128 182.611 119.057 182.631 118.993 182.664C118.928 182.697 118.871 182.743 118.824 182.798L118.754 182.908C118.706 183.018 118.682 183.137 118.684 183.257L120.39 207.508C120.394 207.638 120.43 207.765 120.494 207.878C120.558 207.991 120.649 208.087 120.759 208.157V208.127Z" fill="#402B4C"/>
<path fill-rule="evenodd" clip-rule="evenodd" d="M126.256 211.389L107.82 218.063L107.491 217.265L125.936 210.591L126.256 211.389Z" fill="#402B4C"/>
<path fill-rule="evenodd" clip-rule="evenodd" d="M129.588 213.863L111.142 220.527L110.823 219.749L129.268 213.075L129.588 213.863Z" fill="#402B4C"/>
<path fill-rule="evenodd" clip-rule="evenodd" d="M133.069 216.167L114.634 222.841L114.304 222.053L132.75 215.389L133.069 216.167Z" fill="#402B4C"/>
<path fill-rule="evenodd" clip-rule="evenodd" d="M137.369 219.22L118.923 225.884L118.604 225.086L137.049 218.432L137.369 219.22Z" fill="#402B4C"/>
<path fill-rule="evenodd" clip-rule="evenodd" d="M141.798 222.562L123.353 229.236L123.033 228.448L141.479 221.774L141.798 222.562Z" fill="#402B4C"/>
<path fill-rule="evenodd" clip-rule="evenodd" d="M103.79 213.494L97.7545 192.475L118.794 184.304L120.35 207.049L103.79 213.494ZM121.647 207.618L119.981 183.357C119.971 183.173 119.899 182.998 119.775 182.862C119.651 182.725 119.484 182.636 119.302 182.608C119.213 182.605 119.124 182.622 119.043 182.658L96.6971 191.337C96.5571 191.405 96.447 191.521 96.3881 191.665C96.3291 191.809 96.3255 191.969 96.3778 192.115L102.812 214.491C102.851 214.669 102.953 214.827 103.101 214.933C103.248 215.04 103.429 215.089 103.61 215.07H103.72L121.308 208.236C121.424 208.185 121.521 208.097 121.582 207.985C121.644 207.873 121.666 207.744 121.647 207.618Z" fill="#402B4C"/>
<path fill-rule="evenodd" clip-rule="evenodd" d="M115.053 184.843L117.407 208.835C117.413 208.927 117.452 209.015 117.515 209.082C117.579 209.15 117.664 209.193 117.756 209.204C117.795 209.204 117.833 209.196 117.868 209.181C117.903 209.166 117.935 209.143 117.961 209.115C117.987 209.087 118.007 209.054 118.02 209.018C118.033 208.982 118.038 208.943 118.036 208.905V208.905L115.691 184.913C115.683 184.821 115.644 184.734 115.581 184.667C115.518 184.6 115.433 184.557 115.342 184.544C115.265 184.544 115.192 184.574 115.137 184.628C115.083 184.683 115.053 184.756 115.053 184.833V184.843ZM110.514 186.619L114.005 210.182C114.017 210.273 114.06 210.357 114.128 210.419C114.195 210.481 114.283 210.517 114.374 210.521C114.412 210.518 114.45 210.508 114.484 210.491C114.518 210.474 114.548 210.451 114.573 210.422C114.598 210.394 114.617 210.36 114.63 210.324C114.642 210.288 114.646 210.25 114.644 210.212C114.644 210.212 114.644 210.212 114.644 210.162L111.152 186.609C111.141 186.519 111.099 186.437 111.033 186.375C110.968 186.313 110.883 186.276 110.793 186.27C110.717 186.275 110.646 186.308 110.594 186.364C110.542 186.42 110.514 186.493 110.514 186.569C110.514 186.569 110.514 186.559 110.514 186.619ZM102.533 189.741L106.793 212.995C106.802 213.087 106.845 213.172 106.913 213.234C106.981 213.297 107.07 213.332 107.162 213.334C107.201 213.329 107.239 213.316 107.274 213.297C107.308 213.277 107.338 213.25 107.363 213.219C107.387 213.187 107.404 213.151 107.414 213.113C107.425 213.074 107.427 213.034 107.421 212.995V212.995L103.161 189.741C103.147 189.65 103.102 189.567 103.032 189.507C102.963 189.447 102.874 189.413 102.782 189.412C102.746 189.416 102.71 189.427 102.678 189.444C102.645 189.462 102.616 189.486 102.593 189.514C102.57 189.543 102.553 189.576 102.542 189.612C102.532 189.647 102.529 189.684 102.533 189.721C102.532 189.728 102.532 189.735 102.533 189.741V189.741ZM106.763 187.826C106.854 187.83 106.942 187.866 107.009 187.928C107.077 187.99 107.12 188.074 107.132 188.165L111.022 211.568C111.033 211.605 111.036 211.644 111.031 211.681C111.026 211.719 111.013 211.756 110.993 211.788C110.974 211.821 110.948 211.849 110.917 211.872C110.886 211.894 110.85 211.909 110.813 211.918V211.918C110.721 211.914 110.634 211.877 110.567 211.815C110.499 211.753 110.456 211.669 110.444 211.578L106.553 188.185C106.543 188.148 106.539 188.11 106.544 188.072C106.548 188.034 106.56 187.997 106.578 187.964C106.597 187.93 106.622 187.901 106.652 187.877C106.682 187.854 106.716 187.836 106.753 187.826V187.826H106.763Z" fill="#402B4C"/>
<path fill-rule="evenodd" clip-rule="evenodd" d="M121.048 216.596C121.064 216.758 121.134 216.909 121.246 217.027C121.358 217.144 121.506 217.221 121.667 217.245C121.728 217.256 121.79 217.255 121.851 217.243C121.912 217.23 121.969 217.205 122.02 217.17C122.071 217.134 122.115 217.089 122.148 217.037C122.182 216.985 122.205 216.927 122.215 216.866C122.22 216.819 122.22 216.772 122.215 216.726L119.332 174.827C119.318 174.662 119.248 174.507 119.134 174.388C119.019 174.268 118.868 174.191 118.704 174.169C118.643 174.159 118.581 174.161 118.521 174.175C118.46 174.189 118.404 174.215 118.354 174.251C118.304 174.288 118.261 174.333 118.229 174.386C118.197 174.438 118.175 174.497 118.165 174.558C118.155 174.604 118.155 174.652 118.165 174.698L121.048 216.596Z" fill="#402B4C"/>
<path fill-rule="evenodd" clip-rule="evenodd" d="M119.262 175.735C119.373 175.685 119.473 175.613 119.555 175.523C119.638 175.434 119.702 175.329 119.743 175.215C119.785 175.101 119.804 174.98 119.798 174.858C119.793 174.737 119.763 174.618 119.711 174.508C119.695 174.466 119.675 174.426 119.652 174.388C119.533 174.128 119.324 173.92 119.064 173.802C118.803 173.685 118.508 173.666 118.235 173.75L94.1632 183.097C93.9431 183.198 93.7709 183.38 93.6833 183.605C93.5957 183.831 93.5997 184.082 93.6943 184.304C93.7115 184.351 93.735 184.394 93.7641 184.434C93.8856 184.692 94.0945 184.899 94.3538 185.017C94.6131 185.136 94.906 185.159 95.1807 185.082L119.262 175.735Z" fill="#402B4C"/>
<path d="M111.701 173.919C111.701 173.919 114.694 174.847 115.252 175.915C115.811 176.982 116.07 179.366 115.641 179.426C115.212 179.486 114.065 177.102 113.646 177.002C113.227 176.902 112.649 176.473 112.738 176.852C112.828 177.231 113.317 177.85 113.157 178.019C112.998 178.189 112.22 177.182 111.791 177.022C111.362 176.862 110.853 175.186 110.374 174.787C109.895 174.388 111.701 173.919 111.701 173.919Z" fill="#402B4C"/>
<path d="M91.0308 170.408L95.7693 178.728L94.243 179.755L87.7986 172.842L91.0308 170.408Z" fill="#402B4C"/>
<path d="M95.3103 178.578C95.5577 178.641 95.7983 178.728 96.0286 178.837C96.5314 178.979 97.0093 179.198 97.4452 179.486C98.1975 180.133 98.8 180.937 99.2109 181.84C99.3398 182.058 99.4183 182.302 99.4408 182.554C99.4632 182.806 99.429 183.06 99.3406 183.297C99.1225 183.599 98.8209 183.832 98.4727 183.965C98.3803 184.016 98.2784 184.046 98.1734 184.055C98.0122 184.031 97.8623 183.958 97.7444 183.845L95.5398 182C95.2127 181.763 94.9349 181.465 94.7217 181.122C94.5322 180.783 94.4723 180.384 94.3028 180.035C94.1332 179.685 93.794 179.486 94.0434 179.147C94.2928 178.808 94.9412 178.688 95.3103 178.578Z" fill="#402B4C"/>
<path fill-rule="evenodd" clip-rule="evenodd" d="M104.977 222.272C105.017 222.431 105.112 222.571 105.245 222.666C105.379 222.761 105.542 222.806 105.705 222.791C105.831 222.776 105.945 222.712 106.024 222.613C106.102 222.514 106.138 222.388 106.124 222.262V222.143L95.2605 184.015C95.2172 183.858 95.1212 183.721 94.9886 183.626C94.8559 183.532 94.6948 183.486 94.5322 183.496C94.4051 183.516 94.2906 183.584 94.2125 183.686C94.1344 183.789 94.0988 183.917 94.1132 184.045V184.155L104.977 222.272Z" fill="#402B4C"/>
<path fill-rule="evenodd" clip-rule="evenodd" d="M108.628 225.355C107.252 224.727 106.144 225.515 106.144 227.111C106.176 227.934 106.422 228.735 106.858 229.435C107.293 230.134 107.904 230.709 108.628 231.101C110.005 231.72 111.122 230.932 111.122 229.335C111.089 228.512 110.842 227.712 110.404 227.014C109.967 226.315 109.355 225.744 108.628 225.355Z" fill="#402B4C"/>
<path fill-rule="evenodd" clip-rule="evenodd" d="M107.86 225.126C107.338 225.097 106.815 225.175 106.324 225.355C106.015 225.465 108.1 226.672 107.86 225.126Z" fill="#402B4C"/>
<path fill-rule="evenodd" clip-rule="evenodd" d="M108.628 231.45C109.15 231.488 109.674 231.413 110.165 231.231C110.484 231.081 108.399 229.904 108.628 231.45Z" fill="#402B4C"/>
<path fill-rule="evenodd" clip-rule="evenodd" d="M107.75 225.465C106.384 224.846 105.266 225.634 105.266 227.23C105.297 228.054 105.542 228.856 105.977 229.556C106.413 230.256 107.024 230.83 107.75 231.221C109.127 231.849 110.244 231.061 110.244 229.465C110.21 228.64 109.962 227.837 109.525 227.136C109.088 226.435 108.476 225.859 107.75 225.465V225.465Z" fill="#402B4C"/>
<path fill-rule="evenodd" clip-rule="evenodd" d="M107.75 227.46C107.351 227.27 107.022 227.51 107.022 227.979C107.03 228.221 107.101 228.458 107.229 228.665C107.357 228.871 107.536 229.041 107.75 229.156C108.159 229.345 108.488 229.156 108.488 228.637C108.48 228.393 108.407 228.156 108.277 227.949C108.148 227.743 107.966 227.574 107.75 227.46V227.46Z" fill="#402B4C"/>
<path fill-rule="evenodd" clip-rule="evenodd" d="M124.071 236.089C122.704 235.471 121.587 236.259 121.587 237.855C121.619 238.678 121.865 239.479 122.301 240.179C122.736 240.879 123.346 241.453 124.071 241.845C125.448 242.464 126.565 241.676 126.565 240.079C126.531 239.255 126.283 238.454 125.846 237.754C125.408 237.055 124.797 236.481 124.071 236.089V236.089Z" fill="#402B4C"/>
<path fill-rule="evenodd" clip-rule="evenodd" d="M123.273 235.87C122.751 235.841 122.228 235.919 121.737 236.099C121.437 236.239 123.512 237.436 123.273 235.87Z" fill="#402B4C"/>
<path fill-rule="evenodd" clip-rule="evenodd" d="M124.051 242.184C124.573 242.217 125.095 242.142 125.587 241.965C125.896 241.825 123.812 240.648 124.051 242.184Z" fill="#402B4C"/>
<path fill-rule="evenodd" clip-rule="evenodd" d="M123.173 236.199C121.796 235.58 120.679 236.368 120.679 237.965C120.71 238.789 120.957 239.592 121.394 240.292C121.832 240.992 122.445 241.565 123.173 241.955C124.55 242.583 125.657 241.795 125.657 240.199C125.626 239.374 125.381 238.571 124.946 237.869C124.51 237.168 123.899 236.592 123.173 236.199V236.199Z" fill="#402B4C"/>
<path fill-rule="evenodd" clip-rule="evenodd" d="M123.762 235.002C123.754 234.837 123.693 234.679 123.586 234.552C123.48 234.426 123.335 234.338 123.173 234.303C123.112 234.289 123.048 234.286 122.985 234.296C122.923 234.306 122.863 234.329 122.809 234.362C122.755 234.396 122.708 234.439 122.672 234.491C122.635 234.542 122.609 234.601 122.595 234.663C122.59 234.706 122.59 234.749 122.595 234.792V238.982C122.602 239.147 122.663 239.305 122.77 239.431C122.876 239.558 123.022 239.645 123.183 239.68C123.246 239.694 123.311 239.694 123.374 239.682C123.437 239.67 123.497 239.646 123.551 239.611C123.605 239.576 123.651 239.53 123.687 239.477C123.723 239.424 123.749 239.364 123.762 239.301C123.767 239.265 123.767 239.228 123.762 239.192V235.002Z" fill="#402B4C"/>
<path fill-rule="evenodd" clip-rule="evenodd" d="M142.596 232.268L121.347 217.125L107.032 222.582L128.221 237.875L142.596 232.268ZM127.922 238.982L105.546 222.841C105.411 222.755 105.312 222.621 105.27 222.466C105.227 222.311 105.244 222.146 105.316 222.003C105.366 221.917 105.444 221.851 105.536 221.814L121.058 215.898C121.156 215.868 121.26 215.862 121.361 215.881C121.462 215.9 121.557 215.943 121.637 216.008L144.082 231.969C144.218 232.056 144.316 232.189 144.358 232.344C144.401 232.499 144.384 232.664 144.312 232.807C144.26 232.901 144.174 232.972 144.072 233.007L128.51 239.072C128.412 239.107 128.307 239.117 128.205 239.101C128.102 239.085 128.005 239.045 127.922 238.982V238.982Z" fill="#402B4C"/>
<path fill-rule="evenodd" clip-rule="evenodd" d="M108.339 224.258C108.335 224.093 108.274 223.934 108.167 223.809C108.06 223.684 107.913 223.599 107.75 223.569C107.69 223.555 107.627 223.552 107.566 223.561C107.505 223.571 107.446 223.593 107.393 223.625C107.34 223.658 107.294 223.7 107.258 223.751C107.222 223.801 107.196 223.858 107.182 223.918C107.177 223.962 107.177 224.005 107.182 224.048V228.238C107.187 228.402 107.246 228.56 107.351 228.687C107.456 228.813 107.6 228.901 107.76 228.936C107.822 228.951 107.886 228.954 107.948 228.943C108.011 228.933 108.071 228.911 108.125 228.878C108.178 228.844 108.225 228.8 108.262 228.749C108.299 228.697 108.325 228.639 108.339 228.577C108.344 228.534 108.344 228.491 108.339 228.448V224.258Z" fill="#402B4C"/>
<path fill-rule="evenodd" clip-rule="evenodd" d="M125.747 219.479L125.428 218.691L109.237 224.547L109.556 225.335L125.747 219.479ZM129.079 221.963L112.888 227.819L112.569 227.031L128.76 221.175L129.079 221.963ZM132.57 224.268L116.38 230.124L116.06 229.335L132.241 223.47L132.56 224.258L132.57 224.268ZM136.87 227.26L120.679 233.116L120.36 232.328L136.561 226.532L136.88 227.32L136.87 227.26ZM125.108 236.468L124.789 235.68L140.98 229.824L141.299 230.612L125.108 236.468Z" fill="#402B4C"/>
<path fill-rule="evenodd" clip-rule="evenodd" d="M139.553 229.764C138.177 229.146 137.069 229.934 137.069 231.53C137.102 232.354 137.347 233.155 137.783 233.854C138.219 234.554 138.829 235.128 139.553 235.52C140.93 236.139 142.047 235.351 142.047 233.755C142.013 232.93 141.765 232.129 141.328 231.43C140.891 230.73 140.279 230.156 139.553 229.764Z" fill="url(#paint16_linear_17_148)"/>
<path fill-rule="evenodd" clip-rule="evenodd" d="M138.785 229.545C138.263 229.516 137.74 229.594 137.249 229.774C136.94 229.914 139.025 231.091 138.785 229.545Z" fill="url(#paint17_linear_17_148)"/>
<path fill-rule="evenodd" clip-rule="evenodd" d="M139.553 235.86C140.075 235.892 140.598 235.817 141.09 235.64C141.409 235.5 139.324 234.323 139.553 235.86Z" fill="url(#paint18_linear_17_148)"/>
<path fill-rule="evenodd" clip-rule="evenodd" d="M138.676 229.874C137.309 229.256 136.192 230.044 136.192 231.64C136.222 232.464 136.467 233.266 136.903 233.966C137.338 234.665 137.95 235.239 138.676 235.63C140.052 236.259 141.17 235.471 141.17 233.874C141.135 233.049 140.887 232.246 140.45 231.545C140.013 230.844 139.402 230.268 138.676 229.874Z" fill="#333333"/>
<path fill-rule="evenodd" clip-rule="evenodd" d="M138.676 231.919C138.276 231.73 137.947 231.969 137.947 232.438C137.955 232.681 138.026 232.917 138.154 233.124C138.282 233.33 138.462 233.5 138.676 233.615C139.085 233.795 139.414 233.615 139.414 233.096C139.405 232.852 139.332 232.615 139.203 232.409C139.073 232.202 138.891 232.033 138.676 231.919Z" fill="url(#paint19_linear_17_148)"/>
<path fill-rule="evenodd" clip-rule="evenodd" d="M139.264 228.667C139.258 228.503 139.197 228.345 139.09 228.22C138.983 228.095 138.837 228.01 138.676 227.979C138.614 227.966 138.55 227.965 138.489 227.976C138.427 227.987 138.368 228.011 138.315 228.045C138.262 228.08 138.216 228.124 138.181 228.176C138.145 228.228 138.12 228.286 138.107 228.348C138.102 228.388 138.102 228.428 138.107 228.467V232.657C138.112 232.82 138.172 232.977 138.277 233.101C138.382 233.226 138.526 233.312 138.686 233.346C138.745 233.362 138.806 233.367 138.867 233.359C138.928 233.351 138.986 233.332 139.039 233.301C139.092 233.27 139.139 233.229 139.175 233.18C139.212 233.132 139.239 233.076 139.254 233.016C139.264 232.967 139.264 232.916 139.254 232.867L139.264 228.667Z" fill="url(#paint20_linear_17_148)"/>
<path fill-rule="evenodd" clip-rule="evenodd" d="M124.649 187.267L125.467 210.92C125.468 211.013 125.502 211.103 125.562 211.174C125.622 211.245 125.705 211.293 125.797 211.309C125.833 211.312 125.87 211.307 125.905 211.296C125.94 211.284 125.972 211.266 126 211.242C126.028 211.217 126.051 211.188 126.067 211.155C126.084 211.122 126.093 211.086 126.096 211.05V211L125.288 187.347C125.283 187.255 125.249 187.167 125.189 187.097C125.13 187.026 125.049 186.978 124.959 186.958C124.922 186.954 124.885 186.957 124.849 186.967C124.814 186.978 124.781 186.995 124.752 187.018C124.723 187.041 124.699 187.07 124.682 187.102C124.664 187.135 124.653 187.171 124.649 187.207V187.267ZM145.12 201.732L141.13 221.983C141.114 222.075 141.13 222.17 141.175 222.252C141.22 222.333 141.292 222.397 141.379 222.432C141.412 222.447 141.447 222.454 141.482 222.454C141.518 222.455 141.553 222.447 141.586 222.433C141.619 222.419 141.648 222.399 141.673 222.373C141.697 222.347 141.716 222.316 141.728 222.282C141.732 222.263 141.732 222.242 141.728 222.223L145.718 201.982C145.743 201.894 145.736 201.8 145.7 201.717C145.663 201.633 145.6 201.565 145.519 201.523C145.454 201.495 145.38 201.492 145.314 201.517C145.247 201.541 145.192 201.589 145.16 201.652C145.155 201.675 145.155 201.699 145.16 201.722L145.12 201.732ZM130.266 191.228L128.789 213.324C128.784 213.418 128.81 213.51 128.865 213.587C128.919 213.663 128.998 213.718 129.089 213.743C129.16 213.758 129.234 213.745 129.296 213.705C129.357 213.666 129.401 213.605 129.418 213.534L130.894 191.427C130.9 191.334 130.873 191.241 130.819 191.165C130.764 191.088 130.685 191.033 130.595 191.008C130.524 190.993 130.449 191.007 130.388 191.046C130.326 191.085 130.283 191.147 130.266 191.218C130.266 191.221 130.266 191.224 130.266 191.228V191.228ZM139.783 197.951L136.162 218.482C136.151 218.573 136.17 218.666 136.217 218.745C136.264 218.824 136.335 218.886 136.421 218.921C136.483 218.949 136.554 218.952 136.619 218.93C136.684 218.908 136.738 218.862 136.77 218.801C136.775 218.771 136.775 218.741 136.77 218.711L140.381 198.201C140.396 198.109 140.379 198.015 140.334 197.934C140.288 197.852 140.217 197.788 140.132 197.752C140.099 197.737 140.064 197.73 140.029 197.73C139.993 197.729 139.958 197.737 139.925 197.751C139.892 197.765 139.863 197.785 139.838 197.811C139.814 197.837 139.795 197.868 139.783 197.901C139.778 197.924 139.778 197.948 139.783 197.971V197.951ZM132.48 215.908C132.471 216 132.494 216.093 132.545 216.171C132.596 216.249 132.671 216.308 132.76 216.337C132.823 216.36 132.893 216.357 132.955 216.329C133.016 216.301 133.064 216.25 133.089 216.187C133.094 216.157 133.094 216.127 133.089 216.097L135.763 194.919C135.768 194.843 135.752 194.768 135.716 194.701C135.681 194.634 135.628 194.578 135.563 194.54C135.53 194.527 135.495 194.521 135.46 194.522C135.425 194.524 135.391 194.532 135.359 194.547C135.328 194.562 135.299 194.583 135.276 194.609C135.253 194.635 135.235 194.666 135.224 194.699C135.219 194.726 135.219 194.753 135.224 194.779L132.48 215.908Z" fill="url(#paint21_linear_17_148)"/>
<path fill-rule="evenodd" clip-rule="evenodd" d="M120.071 184.564L151.784 207.129L145.798 224.397L121.597 207.229L120.071 184.564ZM120.759 208.127L145.858 225.993C145.913 226.041 145.977 226.077 146.046 226.1C146.115 226.123 146.187 226.132 146.26 226.126C146.332 226.12 146.403 226.101 146.467 226.068C146.532 226.035 146.589 225.989 146.636 225.934L146.706 225.824L153.171 207.239C153.219 207.076 153.215 206.901 153.16 206.74C153.104 206.58 153 206.44 152.861 206.341L119.602 182.738C119.547 182.691 119.483 182.654 119.414 182.632C119.345 182.609 119.273 182.6 119.2 182.606C119.128 182.611 119.057 182.631 118.993 182.664C118.928 182.697 118.871 182.743 118.824 182.798L118.754 182.908C118.706 183.018 118.682 183.137 118.684 183.257L120.39 207.508C120.394 207.638 120.43 207.765 120.494 207.878C120.558 207.991 120.649 208.087 120.759 208.157V208.127Z" fill="url(#paint22_linear_17_148)"/>
<path fill-rule="evenodd" clip-rule="evenodd" d="M103.79 213.494L97.7545 192.475L118.794 184.304L120.35 207.049L103.79 213.494ZM121.647 207.618L119.981 183.357C119.971 183.173 119.899 182.998 119.775 182.862C119.651 182.725 119.484 182.636 119.302 182.608C119.213 182.605 119.124 182.622 119.043 182.658L96.6971 191.337C96.5571 191.405 96.447 191.521 96.3881 191.665C96.3291 191.809 96.3255 191.969 96.3778 192.115L102.812 214.491C102.851 214.669 102.953 214.827 103.101 214.933C103.248 215.04 103.429 215.089 103.61 215.07H103.72L121.308 208.236C121.424 208.185 121.521 208.097 121.582 207.985C121.644 207.873 121.666 207.744 121.647 207.618Z" fill="url(#paint23_linear_17_148)"/>
<path fill-rule="evenodd" clip-rule="evenodd" d="M115.053 184.843L117.407 208.835C117.413 208.927 117.452 209.015 117.515 209.082C117.579 209.15 117.664 209.193 117.756 209.204C117.795 209.204 117.833 209.196 117.868 209.181C117.903 209.166 117.935 209.143 117.961 209.115C117.987 209.087 118.007 209.054 118.02 209.018C118.033 208.982 118.038 208.943 118.036 208.905V208.905L115.691 184.913C115.683 184.821 115.644 184.734 115.581 184.667C115.518 184.6 115.433 184.557 115.342 184.544C115.265 184.544 115.192 184.574 115.137 184.628C115.083 184.683 115.053 184.756 115.053 184.833V184.843ZM110.514 186.619L114.005 210.182C114.017 210.273 114.06 210.357 114.128 210.419C114.195 210.481 114.283 210.517 114.374 210.521C114.412 210.518 114.45 210.508 114.484 210.491C114.518 210.474 114.548 210.451 114.573 210.422C114.598 210.394 114.617 210.36 114.63 210.324C114.642 210.288 114.646 210.25 114.644 210.212C114.644 210.212 114.644 210.212 114.644 210.162L111.152 186.609C111.141 186.519 111.099 186.437 111.033 186.375C110.968 186.313 110.883 186.276 110.793 186.27C110.717 186.275 110.646 186.308 110.594 186.364C110.542 186.42 110.514 186.493 110.514 186.569C110.514 186.569 110.514 186.559 110.514 186.619ZM102.533 189.741L106.793 212.995C106.802 213.087 106.845 213.172 106.913 213.234C106.981 213.297 107.07 213.332 107.162 213.334C107.201 213.329 107.239 213.316 107.274 213.297C107.308 213.277 107.338 213.25 107.363 213.219C107.387 213.187 107.404 213.151 107.414 213.113C107.425 213.074 107.427 213.034 107.421 212.995V212.995L103.161 189.741C103.147 189.65 103.102 189.567 103.032 189.507C102.963 189.447 102.874 189.413 102.782 189.412C102.746 189.416 102.71 189.427 102.678 189.444C102.645 189.462 102.616 189.486 102.593 189.514C102.57 189.543 102.553 189.576 102.542 189.612C102.532 189.647 102.529 189.684 102.533 189.721C102.532 189.728 102.532 189.735 102.533 189.741V189.741ZM106.763 187.826C106.854 187.83 106.942 187.866 107.009 187.928C107.077 187.99 107.12 188.074 107.132 188.165L111.022 211.568C111.033 211.605 111.036 211.644 111.031 211.681C111.026 211.719 111.013 211.756 110.993 211.788C110.974 211.821 110.948 211.849 110.917 211.872C110.886 211.894 110.85 211.909 110.813 211.918V211.918C110.721 211.914 110.634 211.877 110.567 211.815C110.499 211.753 110.456 211.669 110.444 211.578L106.553 188.185C106.543 188.148 106.539 188.11 106.544 188.072C106.548 188.034 106.56 187.997 106.578 187.964C106.597 187.93 106.622 187.901 106.652 187.877C106.682 187.854 106.716 187.836 106.753 187.826V187.826H106.763Z" fill="url(#paint24_linear_17_148)"/>
<path fill-rule="evenodd" clip-rule="evenodd" d="M121.048 216.596C121.064 216.758 121.134 216.909 121.246 217.027C121.358 217.144 121.506 217.221 121.667 217.245C121.728 217.256 121.79 217.255 121.851 217.243C121.912 217.23 121.969 217.205 122.02 217.17C122.071 217.134 122.115 217.089 122.148 217.037C122.182 216.985 122.205 216.927 122.215 216.866C122.22 216.819 122.22 216.772 122.215 216.726L119.332 174.827C119.318 174.662 119.248 174.507 119.134 174.388C119.019 174.268 118.868 174.191 118.704 174.169C118.643 174.159 118.581 174.161 118.521 174.175C118.46 174.189 118.404 174.215 118.354 174.251C118.304 174.288 118.261 174.333 118.229 174.386C118.197 174.438 118.175 174.497 118.165 174.558C118.155 174.604 118.155 174.652 118.165 174.698L121.048 216.596Z" fill="url(#paint25_linear_17_148)"/>
<path fill-rule="evenodd" clip-rule="evenodd" d="M119.262 175.735C119.373 175.685 119.473 175.613 119.555 175.523C119.638 175.434 119.702 175.329 119.743 175.215C119.785 175.101 119.804 174.98 119.798 174.858C119.793 174.737 119.763 174.618 119.711 174.508C119.695 174.466 119.675 174.426 119.652 174.388C119.533 174.128 119.324 173.92 119.064 173.802C118.803 173.685 118.508 173.666 118.235 173.75L94.1632 183.097C93.9431 183.198 93.7709 183.38 93.6833 183.605C93.5957 183.831 93.5997 184.082 93.6943 184.304C93.7115 184.351 93.735 184.394 93.7641 184.434C93.8856 184.692 94.0945 184.899 94.3538 185.017C94.6131 185.136 94.906 185.159 95.1807 185.082L119.262 175.735Z" fill="#402B4C"/>
<path d="M111.701 173.919C111.701 173.919 114.694 174.847 115.252 175.915C115.811 176.982 116.07 179.366 115.641 179.426C115.212 179.486 114.065 177.102 113.646 177.002C113.227 176.902 112.649 176.473 112.738 176.852C112.828 177.231 113.317 177.85 113.157 178.019C112.998 178.189 112.22 177.182 111.791 177.022C111.362 176.862 110.853 175.186 110.374 174.787C109.895 174.388 111.701 173.919 111.701 173.919Z" fill="#F4BE8C"/>
<path d="M91.0308 170.408L95.7693 178.728L94.243 179.755L87.7986 172.842L91.0308 170.408Z" fill="#F4BE8C"/>
<path d="M95.3103 178.578C95.5577 178.641 95.7983 178.728 96.0286 178.837C96.5314 178.979 97.0093 179.198 97.4452 179.486C98.1975 180.133 98.8 180.937 99.2109 181.84C99.3398 182.058 99.4183 182.302 99.4408 182.554C99.4632 182.806 99.429 183.06 99.3406 183.297C99.1225 183.599 98.8209 183.832 98.4727 183.965C98.3803 184.016 98.2784 184.046 98.1734 184.055C98.0122 184.031 97.8623 183.958 97.7444 183.845L95.5398 182C95.2127 181.763 94.9349 181.465 94.7217 181.122C94.5322 180.783 94.4723 180.384 94.3028 180.035C94.1332 179.685 93.794 179.486 94.0434 179.147C94.2928 178.808 94.9412 178.688 95.3103 178.578Z" fill="#F4BE8C"/>
<path fill-rule="evenodd" clip-rule="evenodd" d="M104.977 222.272C105.017 222.431 105.112 222.571 105.245 222.666C105.379 222.761 105.542 222.806 105.705 222.791C105.831 222.776 105.945 222.712 106.024 222.613C106.102 222.514 106.138 222.388 106.124 222.262V222.143L95.2605 184.015C95.2172 183.858 95.1212 183.721 94.9886 183.626C94.8559 183.532 94.6948 183.486 94.5322 183.496C94.4051 183.516 94.2906 183.584 94.2125 183.686C94.1344 183.789 94.0988 183.917 94.1132 184.045V184.155L104.977 222.272Z" fill="url(#paint26_linear_17_148)"/>
<path fill-rule="evenodd" clip-rule="evenodd" d="M108.628 225.355C107.252 224.727 106.144 225.515 106.144 227.111C106.176 227.934 106.422 228.735 106.858 229.435C107.293 230.134 107.904 230.709 108.628 231.101C110.005 231.72 111.122 230.932 111.122 229.335C111.089 228.512 110.842 227.712 110.404 227.014C109.967 226.315 109.355 225.744 108.628 225.355Z" fill="url(#paint27_linear_17_148)"/>
<path fill-rule="evenodd" clip-rule="evenodd" d="M107.86 225.126C107.338 225.097 106.815 225.175 106.324 225.355C106.015 225.465 108.1 226.672 107.86 225.126Z" fill="url(#paint28_linear_17_148)"/>
<path fill-rule="evenodd" clip-rule="evenodd" d="M108.628 231.45C109.15 231.488 109.674 231.413 110.165 231.231C110.484 231.081 108.399 229.904 108.628 231.45Z" fill="url(#paint29_linear_17_148)"/>
<path fill-rule="evenodd" clip-rule="evenodd" d="M107.75 225.465C106.384 224.846 105.266 225.634 105.266 227.23C105.297 228.054 105.542 228.856 105.977 229.556C106.413 230.256 107.024 230.83 107.75 231.221C109.127 231.849 110.244 231.061 110.244 229.465C110.21 228.64 109.962 227.837 109.525 227.136C109.088 226.435 108.476 225.859 107.75 225.465V225.465Z" fill="#333333"/>
<path fill-rule="evenodd" clip-rule="evenodd" d="M107.75 227.46C107.351 227.27 107.022 227.51 107.022 227.979C107.03 228.221 107.101 228.458 107.229 228.665C107.357 228.871 107.536 229.041 107.75 229.156C108.159 229.345 108.488 229.156 108.488 228.637C108.48 228.393 108.407 228.156 108.277 227.949C108.148 227.743 107.966 227.574 107.75 227.46V227.46Z" fill="url(#paint30_linear_17_148)"/>
<path fill-rule="evenodd" clip-rule="evenodd" d="M124.071 236.089C122.704 235.471 121.587 236.259 121.587 237.855C121.619 238.678 121.865 239.479 122.301 240.179C122.736 240.879 123.346 241.453 124.071 241.845C125.448 242.464 126.565 241.676 126.565 240.079C126.531 239.255 126.283 238.454 125.846 237.754C125.408 237.055 124.797 236.481 124.071 236.089V236.089Z" fill="url(#paint31_linear_17_148)"/>
<path fill-rule="evenodd" clip-rule="evenodd" d="M123.273 235.87C122.751 235.841 122.228 235.919 121.737 236.099C121.437 236.239 123.512 237.436 123.273 235.87Z" fill="url(#paint32_linear_17_148)"/>
<path fill-rule="evenodd" clip-rule="evenodd" d="M124.051 242.184C124.573 242.217 125.095 242.142 125.587 241.965C125.896 241.825 123.812 240.648 124.051 242.184Z" fill="url(#paint33_linear_17_148)"/>
<path fill-rule="evenodd" clip-rule="evenodd" d="M123.173 236.199C121.796 235.58 120.679 236.368 120.679 237.965C120.71 238.789 120.957 239.592 121.394 240.292C121.832 240.992 122.445 241.565 123.173 241.955C124.55 242.583 125.657 241.795 125.657 240.199C125.626 239.374 125.381 238.571 124.946 237.869C124.51 237.168 123.899 236.592 123.173 236.199V236.199Z" fill="#333333"/>
<path fill-rule="evenodd" clip-rule="evenodd" d="M123.762 235.002C123.754 234.837 123.693 234.679 123.586 234.552C123.48 234.426 123.335 234.338 123.173 234.303C123.112 234.289 123.048 234.286 122.985 234.296C122.923 234.306 122.863 234.329 122.809 234.362C122.755 234.396 122.708 234.439 122.672 234.491C122.635 234.542 122.609 234.601 122.595 234.663C122.59 234.706 122.59 234.749 122.595 234.792V238.982C122.602 239.147 122.663 239.305 122.77 239.431C122.876 239.558 123.022 239.645 123.183 239.68C123.246 239.694 123.311 239.694 123.374 239.682C123.437 239.67 123.497 239.646 123.551 239.611C123.605 239.576 123.651 239.53 123.687 239.477C123.723 239.424 123.749 239.364 123.762 239.301C123.767 239.265 123.767 239.228 123.762 239.192V235.002Z" fill="#FAF4FC"/>
<path fill-rule="evenodd" clip-rule="evenodd" d="M108.339 224.258C108.335 224.093 108.274 223.934 108.167 223.809C108.06 223.684 107.913 223.599 107.75 223.569C107.69 223.555 107.627 223.552 107.566 223.561C107.505 223.571 107.446 223.593 107.393 223.625C107.34 223.658 107.294 223.7 107.258 223.751C107.222 223.801 107.196 223.858 107.182 223.918C107.177 223.962 107.177 224.005 107.182 224.048V228.238C107.187 228.402 107.246 228.56 107.351 228.687C107.456 228.813 107.6 228.901 107.76 228.936C107.822 228.951 107.886 228.954 107.948 228.943C108.011 228.933 108.071 228.911 108.125 228.878C108.178 228.844 108.225 228.8 108.262 228.749C108.299 228.697 108.325 228.639 108.339 228.577C108.344 228.534 108.344 228.491 108.339 228.448V224.258Z" fill="#FAF4FC"/>
<path fill-rule="evenodd" clip-rule="evenodd" d="M125.747 219.479L125.428 218.691L109.237 224.547L109.556 225.335L125.747 219.479ZM129.079 221.963L112.888 227.819L112.569 227.031L128.76 221.175L129.079 221.963ZM132.57 224.268L116.38 230.124L116.06 229.335L132.241 223.47L132.56 224.258L132.57 224.268ZM136.87 227.26L120.679 233.116L120.36 232.328L136.561 226.532L136.88 227.32L136.87 227.26ZM125.108 236.468L124.789 235.68L140.98 229.824L141.299 230.612L125.108 236.468Z" fill="url(#paint34_linear_17_148)"/>
<path fill-rule="evenodd" clip-rule="evenodd" d="M129.288 231.221L130.795 216.177L151.445 208.197L145.629 224.916L129.288 231.261V231.221ZM146.746 225.744L153.171 207.269C153.221 207.09 153.211 206.899 153.14 206.728C153.07 206.556 152.943 206.412 152.781 206.321C152.628 206.24 152.449 206.222 152.283 206.271L129.917 214.96C129.82 215.003 129.737 215.071 129.675 215.157C129.614 215.243 129.577 215.344 129.568 215.449L127.902 232.119C127.888 232.303 127.937 232.487 128.04 232.641C128.143 232.794 128.294 232.909 128.47 232.967C128.583 233.006 128.706 233.006 128.819 232.967L146.427 226.123C146.506 226.089 146.575 226.037 146.631 225.971C146.686 225.905 146.726 225.828 146.746 225.744V225.744Z" fill="#FAF4FC"/>
<path fill-rule="evenodd" clip-rule="evenodd" d="M146.886 208.905L142.945 226.462C142.926 226.555 142.94 226.651 142.983 226.734C143.027 226.818 143.098 226.884 143.185 226.921C143.25 226.949 143.323 226.951 143.39 226.927C143.457 226.903 143.512 226.855 143.544 226.792C143.548 226.768 143.548 226.745 143.544 226.722L147.534 209.154C147.549 209.063 147.534 208.97 147.49 208.889C147.447 208.808 147.378 208.743 147.295 208.705C147.23 208.677 147.156 208.675 147.09 208.699C147.023 208.723 146.968 208.772 146.936 208.835C146.931 208.858 146.931 208.882 146.936 208.905H146.886ZM142.337 210.68C142.347 210.61 142.383 210.546 142.439 210.501C142.495 210.457 142.565 210.435 142.636 210.441H142.706C142.791 210.476 142.863 210.537 142.91 210.617C142.957 210.696 142.976 210.789 142.965 210.88L140.172 227.979C140.169 228.014 140.16 228.049 140.144 228.08C140.128 228.112 140.106 228.14 140.079 228.164C140.052 228.187 140.021 228.204 139.987 228.215C139.954 228.226 139.918 228.231 139.883 228.228H139.803C139.716 228.193 139.642 228.13 139.595 228.049C139.548 227.967 139.53 227.872 139.544 227.779L142.337 210.68ZM134.356 213.813L132.361 230.612C132.352 230.705 132.374 230.798 132.425 230.876C132.476 230.954 132.552 231.012 132.64 231.041C132.709 231.06 132.782 231.052 132.846 231.019C132.909 230.986 132.957 230.929 132.979 230.862C132.984 230.839 132.984 230.815 132.979 230.792L134.975 213.992C134.984 213.9 134.961 213.807 134.91 213.729C134.86 213.651 134.784 213.593 134.695 213.564C134.626 213.544 134.553 213.552 134.49 213.586C134.427 213.619 134.379 213.675 134.356 213.743C134.351 213.766 134.351 213.79 134.356 213.813V213.813ZM135.942 229.196C135.932 229.288 135.953 229.382 136.002 229.461C136.05 229.541 136.124 229.602 136.212 229.635C136.246 229.649 136.283 229.655 136.32 229.653C136.358 229.652 136.394 229.642 136.427 229.625C136.46 229.608 136.489 229.584 136.512 229.554C136.536 229.525 136.552 229.491 136.561 229.455V229.455L138.955 212.496C138.967 212.403 138.947 212.309 138.898 212.229C138.849 212.149 138.774 212.088 138.686 212.057C138.614 212.038 138.538 212.047 138.473 212.083C138.408 212.118 138.359 212.177 138.336 212.247C138.335 212.263 138.335 212.28 138.336 212.297L135.942 229.196Z" fill="#FAF4FC"/>
<path d="M80.6957 130.614C80.5246 130.903 80.3969 131.216 80.3166 131.542C80.0845 132.088 79.9648 132.675 79.9648 133.268C79.9648 133.861 80.0845 134.448 80.3166 134.994C80.4845 135.431 80.7165 135.841 81.005 136.211C81.3019 136.582 81.7176 136.839 82.1821 136.939C82.2315 136.949 82.2824 136.949 82.3317 136.939C82.3736 136.92 82.4084 136.889 82.4315 136.849C82.5511 136.544 82.5511 136.206 82.4315 135.901C82.2423 134.703 82.3311 133.478 82.6909 132.32C82.8315 131.895 82.9088 131.451 82.9203 131.003C82.9352 130.759 82.8648 130.517 82.721 130.318C82.5773 130.12 82.3692 129.978 82.1322 129.916C81.8502 129.873 81.5618 129.917 81.3052 130.041C81.0487 130.166 80.8361 130.366 80.6957 130.614V130.614Z" fill="#402B4C"/>
<path fill-rule="evenodd" clip-rule="evenodd" d="M96.697 191.327L130.575 215.14L130.046 216.816L97.0063 193.103L96.697 191.327Z" fill="#FAF4FC"/>
<path fill-rule="evenodd" clip-rule="evenodd" d="M104.728 198.4L107.88 217.434L108.538 217.634L105.955 199.118L104.728 198.4Z" fill="#FAF4FC"/>
<path fill-rule="evenodd" clip-rule="evenodd" d="M110.863 202.69L112.579 220.996L113.237 221.215L112.09 203.418L110.863 202.69Z" fill="#FAF4FC"/>
<path fill-rule="evenodd" clip-rule="evenodd" d="M116.878 206.69L117.078 224.118L117.736 224.338L118.105 207.438L116.878 206.69Z" fill="#FAF4FC"/>
<path fill-rule="evenodd" clip-rule="evenodd" d="M121.367 210.501L122.205 228.228L122.864 228.448L122.594 211.239L121.367 210.501Z" fill="#FAF4FC"/>
<path fill-rule="evenodd" clip-rule="evenodd" d="M128.321 231.221L103.78 213.484L103.61 215.1L128.47 232.967L128.321 231.221Z" fill="#FAF4FC"/>
<path d="M61.3525 88.7354V105.625C61.3393 106.398 61.4785 107.166 61.7621 107.885C62.0458 108.604 62.4683 109.26 63.0056 109.816C63.5429 110.372 64.1845 110.816 64.8936 111.124C65.6027 111.432 66.3656 111.597 67.1385 111.61H80.1072L85.9431 120.06V111.61H96.9165C97.6912 111.6 98.4562 111.436 99.1676 111.13C99.879 110.823 100.523 110.379 101.062 109.823C101.602 109.267 102.026 108.61 102.311 107.889C102.596 107.169 102.736 106.399 102.722 105.625V88.6656C102.744 87.1026 102.145 85.595 101.056 84.473C99.9681 83.3511 98.4794 82.7063 96.9165 82.6801H67.1485C66.3691 82.693 65.6 82.8603 64.8856 83.1724C64.1713 83.4845 63.526 83.9351 62.9869 84.4983C62.4479 85.0614 62.0259 85.7259 61.7454 86.4532C61.4648 87.1805 61.3313 87.9562 61.3525 88.7354Z" fill="#86DFED"/>
<path d="M79.6981 109.435L79.8078 106.562C78.3305 106.493 76.9056 105.993 75.7078 105.126L76.426 103.27C77.5536 104.098 78.8995 104.577 80.2967 104.647C82.2918 104.717 83.5987 103.649 83.6585 102.013C83.7184 100.377 82.661 99.4595 80.6658 98.5218C77.9224 97.2847 76.2465 95.9081 76.3462 93.464C76.3902 92.3226 76.862 91.2396 77.6679 90.4301C78.4737 89.6205 79.5545 89.1438 80.6957 89.0946L80.7955 86.2215L82.4914 86.2913L82.3916 89.0247C83.6407 89.0942 84.8505 89.486 85.9031 90.162L85.1649 92.0275C84.1381 91.3326 82.9328 90.9481 81.6933 90.9201C79.5884 90.8304 78.7005 92.0973 78.7005 93.2246C78.6407 94.691 79.6283 95.4592 81.9427 96.5765C84.726 97.8733 86.0827 99.3996 85.933 101.904C85.8819 103.092 85.3949 104.22 84.565 105.072C83.7351 105.924 82.6204 106.44 81.4339 106.522L81.3242 109.455L79.6981 109.435Z" fill="#FAF4FC"/>
</g>
<defs>
<linearGradient id="paint0_linear_17_148" x1="108.947" y1="186.509" x2="112.03" y2="389.298" gradientUnits="userSpaceOnUse">
<stop offset="0.01"/>
<stop offset="0.08" stop-opacity="0.69"/>
<stop offset="0.21" stop-opacity="0.32"/>
<stop offset="1" stop-opacity="0"/>
</linearGradient>
<linearGradient id="paint1_linear_17_148" x1="-243.666" y1="40.7701" x2="-244.542" y2="42.044" gradientUnits="userSpaceOnUse">
<stop offset="0.01"/>
<stop offset="0.08" stop-opacity="0.69"/>
<stop offset="0.21" stop-opacity="0.32"/>
<stop offset="1" stop-opacity="0"/>
</linearGradient>
<linearGradient id="paint2_linear_17_148" x1="236194" y1="-25874.8" x2="196111" y2="64895.9" gradientUnits="userSpaceOnUse">
<stop offset="0.01"/>
<stop offset="0.08" stop-opacity="0.69"/>
<stop offset="0.21" stop-opacity="0.32"/>
<stop offset="1" stop-opacity="0"/>
</linearGradient>
<linearGradient id="paint3_linear_17_148" x1="151649" y1="-14033.7" x2="149485" y2="3864.39" gradientUnits="userSpaceOnUse">
<stop offset="0.01"/>
<stop offset="0.08" stop-opacity="0.69"/>
<stop offset="0.21" stop-opacity="0.32"/>
<stop offset="1" stop-opacity="0"/>
</linearGradient>
<linearGradient id="paint4_linear_17_148" x1="107145" y1="-9857.56" x2="107705" y2="2833.12" gradientUnits="userSpaceOnUse">
<stop offset="0.01"/>
<stop offset="0.08" stop-opacity="0.69"/>
<stop offset="0.21" stop-opacity="0.32"/>
<stop offset="1" stop-opacity="0"/>
</linearGradient>
<linearGradient id="paint5_linear_17_148" x1="54058.7" y1="-5215.28" x2="54432.7" y2="1094.04" gradientUnits="userSpaceOnUse">
<stop offset="0.01"/>
<stop offset="0.08" stop-opacity="0.69"/>
<stop offset="0.21" stop-opacity="0.32"/>
<stop offset="1" stop-opacity="0"/>
</linearGradient>
<linearGradient id="paint6_linear_17_148" x1="25040.5" y1="-1095.36" x2="25096.6" y2="-610.837" gradientUnits="userSpaceOnUse">
<stop offset="0.01"/>
<stop offset="0.08" stop-opacity="0.69"/>
<stop offset="0.21" stop-opacity="0.32"/>
<stop offset="1" stop-opacity="0"/>
</linearGradient>
<linearGradient id="paint7_linear_17_148" x1="104862" y1="-33111.4" x2="98555.3" y2="39131.3" gradientUnits="userSpaceOnUse">
<stop offset="0.01"/>
<stop offset="0.08" stop-opacity="0.69"/>
<stop offset="0.21" stop-opacity="0.32"/>
<stop offset="1" stop-opacity="0"/>
</linearGradient>
<linearGradient id="paint8_linear_17_148" x1="10098.7" y1="16317.7" x2="2187.4" y2="6326.69" gradientUnits="userSpaceOnUse">
<stop offset="0.01"/>
<stop offset="0.08" stop-opacity="0.69"/>
<stop offset="0.21" stop-opacity="0.32"/>
<stop offset="1" stop-opacity="0"/>
</linearGradient>
<linearGradient id="paint9_linear_17_148" x1="18626.1" y1="-4883.8" x2="18792.3" y2="-2251.91" gradientUnits="userSpaceOnUse">
<stop offset="0.01"/>
<stop offset="0.08" stop-opacity="0.69"/>
<stop offset="0.21" stop-opacity="0.32"/>
<stop offset="1" stop-opacity="0"/>
</linearGradient>
<linearGradient id="paint10_linear_17_148" x1="192.027" y1="113.605" x2="356.389" y2="279.015" gradientUnits="userSpaceOnUse">
<stop stop-color="white" stop-opacity="0"/>
<stop offset="0.54" stop-color="white"/>
</linearGradient>
<linearGradient id="paint11_linear_17_148" x1="214.323" y1="215.299" x2="209.544" y2="117.945" gradientUnits="userSpaceOnUse">
<stop offset="0.01"/>
<stop offset="0.13" stop-opacity="0.69"/>
<stop offset="0.25" stop-opacity="0.32"/>
<stop offset="1" stop-opacity="0"/>
</linearGradient>
<linearGradient id="paint12_linear_17_148" x1="31670.7" y1="5828.21" x2="31250.2" y2="8041.55" gradientUnits="userSpaceOnUse">
<stop offset="0.01"/>
<stop offset="0.13" stop-opacity="0.69"/>
<stop offset="0.25" stop-opacity="0.32"/>
<stop offset="1" stop-opacity="0"/>
</linearGradient>
<linearGradient id="paint13_linear_17_148" x1="2273.65" y1="5869.63" x2="2764.42" y2="5869.63" gradientUnits="userSpaceOnUse">
<stop offset="0.01"/>
<stop offset="0.08" stop-opacity="0.69"/>
<stop offset="0.21" stop-opacity="0.32"/>
<stop offset="1" stop-opacity="0"/>
</linearGradient>
<linearGradient id="paint14_linear_17_148" x1="834.92" y1="5748.75" x2="905.981" y2="5748.75" gradientUnits="userSpaceOnUse">
<stop offset="0.01"/>
<stop offset="0.08" stop-opacity="0.69"/>
<stop offset="0.21" stop-opacity="0.32"/>
<stop offset="1" stop-opacity="0"/>
</linearGradient>
<linearGradient id="paint15_linear_17_148" x1="838.525" y1="4210.71" x2="1576.31" y2="3371.77" gradientUnits="userSpaceOnUse">
<stop offset="0.01"/>
<stop offset="0.08" stop-opacity="0.69"/>
<stop offset="0.21" stop-opacity="0.32"/>
<stop offset="1" stop-opacity="0"/>
</linearGradient>
<linearGradient id="paint16_linear_17_148" x1="877.343" y1="823.482" x2="989.503" y2="1219.89" gradientUnits="userSpaceOnUse">
<stop stop-color="white" stop-opacity="0"/>
<stop offset="0.54" stop-color="white"/>
</linearGradient>
<linearGradient id="paint17_linear_17_148" x1="369.897" y1="306.386" x2="376.116" y2="360.802" gradientUnits="userSpaceOnUse">
<stop stop-color="white" stop-opacity="0"/>
<stop offset="0.54" stop-color="white"/>
</linearGradient>
<linearGradient id="paint18_linear_17_148" x1="377.756" y1="310.703" x2="383.874" y2="364.713" gradientUnits="userSpaceOnUse">
<stop stop-color="white" stop-opacity="0"/>
<stop offset="0.54" stop-color="white"/>
</linearGradient>
<linearGradient id="paint19_linear_17_148" x1="354.836" y1="407.994" x2="388.174" y2="525.253" gradientUnits="userSpaceOnUse">
<stop stop-color="white" stop-opacity="0"/>
<stop offset="0.54" stop-color="white"/>
</linearGradient>
<linearGradient id="paint20_linear_17_148" x1="309.276" y1="748.118" x2="495.922" y2="924.432" gradientUnits="userSpaceOnUse">
<stop stop-color="white" stop-opacity="0"/>
<stop offset="0.54" stop-color="white"/>
</linearGradient>
<linearGradient id="paint21_linear_17_148" x1="3004.2" y1="3697.73" x2="3827.3" y2="5841.94" gradientUnits="userSpaceOnUse">
<stop stop-color="white" stop-opacity="0"/>
<stop offset="0.54" stop-color="white"/>
</linearGradient>
<linearGradient id="paint22_linear_17_148" x1="4852.11" y1="4481.44" x2="5652.5" y2="7268.15" gradientUnits="userSpaceOnUse">
<stop stop-color="white" stop-opacity="0"/>
<stop offset="0.54" stop-color="white"/>
</linearGradient>
<linearGradient id="paint23_linear_17_148" x1="2942.98" y1="3572.05" x2="3548.73" y2="5644.92" gradientUnits="userSpaceOnUse">
<stop stop-color="white" stop-opacity="0"/>
<stop offset="0.54" stop-color="white"/>
</linearGradient>
<linearGradient id="paint24_linear_17_148" x1="1863.43" y1="3183.06" x2="2579.75" y2="4875.11" gradientUnits="userSpaceOnUse">
<stop stop-color="white" stop-opacity="0"/>
<stop offset="0.54" stop-color="white"/>
</linearGradient>
<linearGradient id="paint25_linear_17_148" x1="614.584" y1="4576.68" x2="1668.97" y2="5012.57" gradientUnits="userSpaceOnUse">
<stop stop-color="white" stop-opacity="0"/>
<stop offset="0.54" stop-color="white"/>
</linearGradient>
<linearGradient id="paint26_linear_17_148" x1="1352.42" y1="4355.49" x2="2657.69" y2="6106.41" gradientUnits="userSpaceOnUse">
<stop stop-color="white" stop-opacity="0"/>
<stop offset="0.54" stop-color="white"/>
</linearGradient>
<linearGradient id="paint27_linear_17_148" x1="694.937" y1="861.413" x2="806.947" y2="1257.64" gradientUnits="userSpaceOnUse">
<stop stop-color="white" stop-opacity="0"/>
<stop offset="0.54" stop-color="white"/>
</linearGradient>
<linearGradient id="paint28_linear_17_148" x1="290.685" y1="306.629" x2="296.777" y2="360.506" gradientUnits="userSpaceOnUse">
<stop stop-color="white" stop-opacity="0"/>
<stop offset="0.54" stop-color="white"/>
</linearGradient>
<linearGradient id="paint29_linear_17_148" x1="298.546" y1="312.701" x2="304.804" y2="367.31" gradientUnits="userSpaceOnUse">
<stop stop-color="white" stop-opacity="0"/>
<stop offset="0.54" stop-color="white"/>
</linearGradient>
<linearGradient id="paint30_linear_17_148" x1="279.272" y1="416.644" x2="312.752" y2="534.152" gradientUnits="userSpaceOnUse">
<stop stop-color="white" stop-opacity="0"/>
<stop offset="0.54" stop-color="white"/>
</linearGradient>
<linearGradient id="paint31_linear_17_148" x1="795.253" y1="848.588" x2="907.344" y2="1245.07" gradientUnits="userSpaceOnUse">
<stop stop-color="white" stop-opacity="0"/>
<stop offset="0.54" stop-color="white"/>
</linearGradient>
<linearGradient id="paint32_linear_17_148" x1="332.881" y1="316.004" x2="339.237" y2="371.004" gradientUnits="userSpaceOnUse">
<stop stop-color="white" stop-opacity="0"/>
<stop offset="0.54" stop-color="white"/>
</linearGradient>
<linearGradient id="paint33_linear_17_148" x1="340.922" y1="319.443" x2="347.045" y2="373.447" gradientUnits="userSpaceOnUse">
<stop stop-color="white" stop-opacity="0"/>
<stop offset="0.54" stop-color="white"/>
</linearGradient>
<linearGradient id="paint34_linear_17_148" x1="4405.61" y1="1987.33" x2="4558.9" y2="3199.97" gradientUnits="userSpaceOnUse">
<stop stop-color="white" stop-opacity="0"/>
<stop offset="0.54" stop-color="white"/>
</linearGradient>
<clipPath id="clip0_17_148">
<rect width="406" height="306" fill="white"/>
</clipPath>
</defs>
</svg>
